<mxfile host="Electron" agent="Mozilla/5.0 (Windows NT 10.0; Win64; x64) AppleWebKit/537.36 (KHTML, like Gecko) draw.io/24.7.17 Chrome/128.0.6613.36 Electron/32.0.1 Safari/537.36" version="24.7.17">
  <diagram name="Page-1" id="LPZRrgseJmBvmQQGKTqF">
    <mxGraphModel dx="3000" dy="628" grid="1" gridSize="10" guides="1" tooltips="1" connect="1" arrows="1" fold="1" page="1" pageScale="1" pageWidth="827" pageHeight="1169" math="1" shadow="0">
      <root>
        <mxCell id="0" />
        <mxCell id="1" parent="0" />
        <mxCell id="rGoTi4UWK54ArvR2Migu-36" style="edgeStyle=orthogonalEdgeStyle;rounded=0;orthogonalLoop=1;jettySize=auto;html=1;exitX=0;exitY=0.5;exitDx=0;exitDy=0;exitPerimeter=0;strokeWidth=2;endArrow=none;endFill=0;" parent="1" source="rGoTi4UWK54ArvR2Migu-1" edge="1">
          <mxGeometry relative="1" as="geometry">
            <mxPoint x="1350" y="1465.1904761904761" as="targetPoint" />
          </mxGeometry>
        </mxCell>
        <mxCell id="rGoTi4UWK54ArvR2Migu-37" style="edgeStyle=orthogonalEdgeStyle;rounded=0;orthogonalLoop=1;jettySize=auto;html=1;exitX=1;exitY=0;exitDx=0;exitDy=0;exitPerimeter=0;entryX=1;entryY=0.5;entryDx=0;entryDy=0;entryPerimeter=0;strokeWidth=2;endArrow=none;endFill=0;" parent="1" source="rGoTi4UWK54ArvR2Migu-1" target="rGoTi4UWK54ArvR2Migu-9" edge="1">
          <mxGeometry relative="1" as="geometry">
            <mxPoint x="1490" y="1390" as="targetPoint" />
          </mxGeometry>
        </mxCell>
        <mxCell id="rGoTi4UWK54ArvR2Migu-1" value="" style="verticalLabelPosition=bottom;shadow=0;dashed=0;align=center;html=1;verticalAlign=top;shape=mxgraph.electrical.transistors.npn_transistor_5;strokeWidth=2;" parent="1" vertex="1">
          <mxGeometry x="1416" y="1415" width="64" height="100" as="geometry" />
        </mxCell>
        <mxCell id="rGoTi4UWK54ArvR2Migu-2" value="" style="endArrow=none;html=1;rounded=0;strokeWidth=2;" parent="1" edge="1">
          <mxGeometry width="50" height="50" relative="1" as="geometry">
            <mxPoint x="1470" y="1650.15" as="sourcePoint" />
            <mxPoint x="1490" y="1650.15" as="targetPoint" />
          </mxGeometry>
        </mxCell>
        <mxCell id="rGoTi4UWK54ArvR2Migu-3" value="" style="endArrow=none;html=1;rounded=0;strokeWidth=2;" parent="1" edge="1">
          <mxGeometry width="50" height="50" relative="1" as="geometry">
            <mxPoint x="1475" y="1654.89" as="sourcePoint" />
            <mxPoint x="1485" y="1654.89" as="targetPoint" />
          </mxGeometry>
        </mxCell>
        <mxCell id="rGoTi4UWK54ArvR2Migu-4" style="edgeStyle=orthogonalEdgeStyle;rounded=0;orthogonalLoop=1;jettySize=auto;html=1;exitX=1;exitY=0.5;exitDx=0;exitDy=0;exitPerimeter=0;strokeWidth=2;endArrow=none;endFill=0;" parent="1" source="rGoTi4UWK54ArvR2Migu-5" edge="1">
          <mxGeometry relative="1" as="geometry">
            <mxPoint x="1480.2413793103449" y="1650" as="targetPoint" />
          </mxGeometry>
        </mxCell>
        <mxCell id="rGoTi4UWK54ArvR2Migu-5" value="" style="pointerEvents=1;verticalLabelPosition=bottom;shadow=0;dashed=0;align=center;html=1;verticalAlign=top;shape=mxgraph.electrical.resistors.resistor_2;rotation=90;strokeWidth=2;" parent="1" vertex="1">
          <mxGeometry x="1430" y="1562.5" width="100" height="20" as="geometry" />
        </mxCell>
        <mxCell id="rGoTi4UWK54ArvR2Migu-6" style="edgeStyle=orthogonalEdgeStyle;rounded=0;orthogonalLoop=1;jettySize=auto;html=1;exitX=1;exitY=1;exitDx=0;exitDy=0;exitPerimeter=0;entryX=0;entryY=0.5;entryDx=0;entryDy=0;entryPerimeter=0;strokeWidth=2;endArrow=none;endFill=0;" parent="1" source="rGoTi4UWK54ArvR2Migu-1" target="rGoTi4UWK54ArvR2Migu-5" edge="1">
          <mxGeometry relative="1" as="geometry" />
        </mxCell>
        <mxCell id="rGoTi4UWK54ArvR2Migu-7" style="edgeStyle=orthogonalEdgeStyle;rounded=0;orthogonalLoop=1;jettySize=auto;html=1;exitX=0;exitY=0.5;exitDx=0;exitDy=0;exitPerimeter=0;strokeWidth=2;endArrow=none;endFill=0;" parent="1" source="rGoTi4UWK54ArvR2Migu-9" edge="1">
          <mxGeometry relative="1" as="geometry">
            <mxPoint x="1480" y="1210" as="targetPoint" />
          </mxGeometry>
        </mxCell>
        <mxCell id="rGoTi4UWK54ArvR2Migu-9" value="" style="pointerEvents=1;verticalLabelPosition=bottom;shadow=0;dashed=0;align=center;html=1;verticalAlign=top;shape=mxgraph.electrical.resistors.resistor_2;rotation=90;strokeWidth=2;" parent="1" vertex="1">
          <mxGeometry x="1430" y="1320" width="100" height="20" as="geometry" />
        </mxCell>
        <mxCell id="rGoTi4UWK54ArvR2Migu-11" style="edgeStyle=orthogonalEdgeStyle;rounded=0;orthogonalLoop=1;jettySize=auto;html=1;exitX=1;exitY=0.5;exitDx=0;exitDy=0;exitPerimeter=0;strokeWidth=2;endArrow=none;endFill=0;" parent="1" source="rGoTi4UWK54ArvR2Migu-12" edge="1">
          <mxGeometry relative="1" as="geometry">
            <mxPoint x="1349.8571428571427" y="1430" as="targetPoint" />
          </mxGeometry>
        </mxCell>
        <mxCell id="rGoTi4UWK54ArvR2Migu-12" value="" style="pointerEvents=1;verticalLabelPosition=bottom;shadow=0;dashed=0;align=center;html=1;verticalAlign=top;shape=mxgraph.electrical.resistors.resistor_2;rotation=90;strokeWidth=2;" parent="1" vertex="1">
          <mxGeometry x="1300" y="1340" width="100" height="20" as="geometry" />
        </mxCell>
        <mxCell id="rGoTi4UWK54ArvR2Migu-13" style="edgeStyle=orthogonalEdgeStyle;rounded=0;orthogonalLoop=1;jettySize=auto;html=1;exitX=1;exitY=0.5;exitDx=0;exitDy=0;exitPerimeter=0;strokeWidth=2;endArrow=none;endFill=0;" parent="1" source="rGoTi4UWK54ArvR2Migu-14" edge="1">
          <mxGeometry relative="1" as="geometry">
            <mxPoint x="1349.896551724138" y="1650" as="targetPoint" />
          </mxGeometry>
        </mxCell>
        <mxCell id="rGoTi4UWK54ArvR2Migu-14" value="" style="pointerEvents=1;verticalLabelPosition=bottom;shadow=0;dashed=0;align=center;html=1;verticalAlign=top;shape=mxgraph.electrical.resistors.resistor_2;rotation=90;strokeWidth=2;" parent="1" vertex="1">
          <mxGeometry x="1300" y="1537.5" width="100" height="20" as="geometry" />
        </mxCell>
        <mxCell id="rGoTi4UWK54ArvR2Migu-16" style="edgeStyle=orthogonalEdgeStyle;rounded=0;orthogonalLoop=1;jettySize=auto;html=1;exitX=0;exitY=0.5;exitDx=0;exitDy=0;exitPerimeter=0;entryX=1;entryY=0.5;entryDx=0;entryDy=0;entryPerimeter=0;strokeWidth=2;endArrow=none;endFill=0;" parent="1" source="rGoTi4UWK54ArvR2Migu-14" edge="1">
          <mxGeometry relative="1" as="geometry">
            <mxPoint x="1350" y="1430" as="targetPoint" />
          </mxGeometry>
        </mxCell>
        <mxCell id="rGoTi4UWK54ArvR2Migu-17" value="" style="endArrow=none;html=1;rounded=0;strokeWidth=2;" parent="1" edge="1">
          <mxGeometry width="50" height="50" relative="1" as="geometry">
            <mxPoint x="1470" y="1210" as="sourcePoint" />
            <mxPoint x="1490" y="1210" as="targetPoint" />
          </mxGeometry>
        </mxCell>
        <mxCell id="rGoTi4UWK54ArvR2Migu-18" style="edgeStyle=orthogonalEdgeStyle;rounded=0;orthogonalLoop=1;jettySize=auto;html=1;exitX=0;exitY=0.5;exitDx=0;exitDy=0;exitPerimeter=0;entryX=0;entryY=0.5;entryDx=0;entryDy=0;entryPerimeter=0;strokeWidth=2;endArrow=none;endFill=0;" parent="1" source="rGoTi4UWK54ArvR2Migu-12" target="rGoTi4UWK54ArvR2Migu-9" edge="1">
          <mxGeometry relative="1" as="geometry">
            <Array as="points">
              <mxPoint x="1350" y="1250" />
              <mxPoint x="1480" y="1250" />
            </Array>
          </mxGeometry>
        </mxCell>
        <mxCell id="rGoTi4UWK54ArvR2Migu-20" value="" style="endArrow=none;html=1;rounded=0;strokeWidth=2;" parent="1" edge="1">
          <mxGeometry width="50" height="50" relative="1" as="geometry">
            <mxPoint x="1340" y="1650.3000000000002" as="sourcePoint" />
            <mxPoint x="1360" y="1650.15" as="targetPoint" />
          </mxGeometry>
        </mxCell>
        <mxCell id="rGoTi4UWK54ArvR2Migu-21" value="" style="endArrow=none;html=1;rounded=0;strokeWidth=2;" parent="1" edge="1">
          <mxGeometry width="50" height="50" relative="1" as="geometry">
            <mxPoint x="1345" y="1655.0400000000002" as="sourcePoint" />
            <mxPoint x="1355" y="1655.0400000000002" as="targetPoint" />
          </mxGeometry>
        </mxCell>
        <mxCell id="rGoTi4UWK54ArvR2Migu-22" value="$$V_{CC}$$" style="text;html=1;align=center;verticalAlign=middle;whiteSpace=wrap;rounded=0;fontSize=16;" parent="1" vertex="1">
          <mxGeometry x="1450" y="1180" width="60" height="30" as="geometry" />
        </mxCell>
        <mxCell id="rGoTi4UWK54ArvR2Migu-23" value="$$R_1$$" style="text;html=1;align=center;verticalAlign=middle;whiteSpace=wrap;rounded=0;fontSize=16;" parent="1" vertex="1">
          <mxGeometry x="1285" y="1335" width="60" height="30" as="geometry" />
        </mxCell>
        <mxCell id="rGoTi4UWK54ArvR2Migu-24" value="$$R_2$$" style="text;html=1;align=center;verticalAlign=middle;whiteSpace=wrap;rounded=0;fontSize=16;" parent="1" vertex="1">
          <mxGeometry x="1285" y="1535" width="60" height="30" as="geometry" />
        </mxCell>
        <mxCell id="rGoTi4UWK54ArvR2Migu-25" value="$$R_E$$" style="text;html=1;align=center;verticalAlign=middle;whiteSpace=wrap;rounded=0;fontSize=16;" parent="1" vertex="1">
          <mxGeometry x="1485" y="1557.5" width="60" height="30" as="geometry" />
        </mxCell>
        <mxCell id="rGoTi4UWK54ArvR2Migu-26" value="$$R_C$$" style="text;html=1;align=center;verticalAlign=middle;whiteSpace=wrap;rounded=0;fontSize=16;" parent="1" vertex="1">
          <mxGeometry x="1485" y="1315" width="60" height="30" as="geometry" />
        </mxCell>
        <mxCell id="rGoTi4UWK54ArvR2Migu-51" style="edgeStyle=orthogonalEdgeStyle;rounded=0;orthogonalLoop=1;jettySize=auto;html=1;exitX=1;exitY=0;exitDx=0;exitDy=0;exitPerimeter=0;entryX=1;entryY=0.5;entryDx=0;entryDy=0;entryPerimeter=0;strokeWidth=2;endArrow=none;endFill=0;" parent="1" source="rGoTi4UWK54ArvR2Migu-52" target="rGoTi4UWK54ArvR2Migu-59" edge="1">
          <mxGeometry relative="1" as="geometry">
            <mxPoint x="855" y="1430" as="targetPoint" />
          </mxGeometry>
        </mxCell>
        <mxCell id="rGoTi4UWK54ArvR2Migu-52" value="" style="verticalLabelPosition=bottom;shadow=0;dashed=0;align=center;html=1;verticalAlign=top;shape=mxgraph.electrical.transistors.npn_transistor_5;strokeWidth=2;" parent="1" vertex="1">
          <mxGeometry x="781" y="1455" width="64" height="100" as="geometry" />
        </mxCell>
        <mxCell id="rGoTi4UWK54ArvR2Migu-53" value="" style="endArrow=none;html=1;rounded=0;strokeWidth=2;" parent="1" edge="1">
          <mxGeometry width="50" height="50" relative="1" as="geometry">
            <mxPoint x="835" y="1650.15" as="sourcePoint" />
            <mxPoint x="855" y="1650.15" as="targetPoint" />
          </mxGeometry>
        </mxCell>
        <mxCell id="rGoTi4UWK54ArvR2Migu-54" value="" style="endArrow=none;html=1;rounded=0;strokeWidth=2;" parent="1" edge="1">
          <mxGeometry width="50" height="50" relative="1" as="geometry">
            <mxPoint x="840" y="1654.89" as="sourcePoint" />
            <mxPoint x="850" y="1654.89" as="targetPoint" />
          </mxGeometry>
        </mxCell>
        <mxCell id="rGoTi4UWK54ArvR2Migu-57" style="edgeStyle=orthogonalEdgeStyle;rounded=0;orthogonalLoop=1;jettySize=auto;html=1;exitX=1;exitY=1;exitDx=0;exitDy=0;exitPerimeter=0;strokeWidth=2;endArrow=none;endFill=0;" parent="1" source="rGoTi4UWK54ArvR2Migu-52" edge="1">
          <mxGeometry relative="1" as="geometry">
            <mxPoint x="845" y="1650" as="targetPoint" />
          </mxGeometry>
        </mxCell>
        <mxCell id="rGoTi4UWK54ArvR2Migu-58" style="edgeStyle=orthogonalEdgeStyle;rounded=0;orthogonalLoop=1;jettySize=auto;html=1;exitX=0;exitY=0.5;exitDx=0;exitDy=0;exitPerimeter=0;strokeWidth=2;endArrow=none;endFill=0;" parent="1" source="rGoTi4UWK54ArvR2Migu-59" edge="1">
          <mxGeometry relative="1" as="geometry">
            <mxPoint x="845" y="1250" as="targetPoint" />
          </mxGeometry>
        </mxCell>
        <mxCell id="rGoTi4UWK54ArvR2Migu-59" value="" style="pointerEvents=1;verticalLabelPosition=bottom;shadow=0;dashed=0;align=center;html=1;verticalAlign=top;shape=mxgraph.electrical.resistors.resistor_2;rotation=90;strokeWidth=2;" parent="1" vertex="1">
          <mxGeometry x="795" y="1360" width="100" height="20" as="geometry" />
        </mxCell>
        <mxCell id="rGoTi4UWK54ArvR2Migu-61" value="" style="pointerEvents=1;verticalLabelPosition=bottom;shadow=0;dashed=0;align=center;html=1;verticalAlign=top;shape=mxgraph.electrical.resistors.resistor_2;rotation=90;strokeWidth=2;" parent="1" vertex="1">
          <mxGeometry x="665" y="1380" width="100" height="20" as="geometry" />
        </mxCell>
        <mxCell id="rGoTi4UWK54ArvR2Migu-65" value="" style="endArrow=none;html=1;rounded=0;strokeWidth=2;" parent="1" edge="1">
          <mxGeometry width="50" height="50" relative="1" as="geometry">
            <mxPoint x="835" y="1250" as="sourcePoint" />
            <mxPoint x="855" y="1250" as="targetPoint" />
          </mxGeometry>
        </mxCell>
        <mxCell id="rGoTi4UWK54ArvR2Migu-66" style="edgeStyle=orthogonalEdgeStyle;rounded=0;orthogonalLoop=1;jettySize=auto;html=1;exitX=0;exitY=0.5;exitDx=0;exitDy=0;exitPerimeter=0;entryX=0;entryY=0.5;entryDx=0;entryDy=0;entryPerimeter=0;strokeWidth=2;endArrow=none;endFill=0;" parent="1" source="rGoTi4UWK54ArvR2Migu-61" target="rGoTi4UWK54ArvR2Migu-59" edge="1">
          <mxGeometry relative="1" as="geometry">
            <Array as="points">
              <mxPoint x="715" y="1290" />
              <mxPoint x="845" y="1290" />
            </Array>
          </mxGeometry>
        </mxCell>
        <mxCell id="rGoTi4UWK54ArvR2Migu-69" value="$$V_{CC}$$" style="text;html=1;align=center;verticalAlign=middle;whiteSpace=wrap;rounded=0;fontSize=16;" parent="1" vertex="1">
          <mxGeometry x="815" y="1220" width="60" height="30" as="geometry" />
        </mxCell>
        <mxCell id="rGoTi4UWK54ArvR2Migu-70" value="$$R_B$$" style="text;html=1;align=center;verticalAlign=middle;whiteSpace=wrap;rounded=0;fontSize=16;" parent="1" vertex="1">
          <mxGeometry x="650" y="1375" width="60" height="30" as="geometry" />
        </mxCell>
        <mxCell id="rGoTi4UWK54ArvR2Migu-73" value="$$R_C$$" style="text;html=1;align=center;verticalAlign=middle;whiteSpace=wrap;rounded=0;fontSize=16;" parent="1" vertex="1">
          <mxGeometry x="850" y="1355" width="60" height="30" as="geometry" />
        </mxCell>
        <mxCell id="rGoTi4UWK54ArvR2Migu-77" style="edgeStyle=orthogonalEdgeStyle;rounded=0;orthogonalLoop=1;jettySize=auto;html=1;exitX=1;exitY=0.5;exitDx=0;exitDy=0;exitPerimeter=0;entryX=0;entryY=0.5;entryDx=0;entryDy=0;entryPerimeter=0;strokeWidth=2;endArrow=none;endFill=0;" parent="1" source="rGoTi4UWK54ArvR2Migu-61" target="rGoTi4UWK54ArvR2Migu-52" edge="1">
          <mxGeometry relative="1" as="geometry" />
        </mxCell>
        <mxCell id="rGoTi4UWK54ArvR2Migu-78" style="edgeStyle=orthogonalEdgeStyle;rounded=0;orthogonalLoop=1;jettySize=auto;html=1;exitX=0;exitY=0.5;exitDx=0;exitDy=0;exitPerimeter=0;strokeWidth=2;endArrow=none;endFill=0;" parent="1" source="rGoTi4UWK54ArvR2Migu-80" edge="1">
          <mxGeometry relative="1" as="geometry">
            <mxPoint x="1685" y="1465.1904761904761" as="targetPoint" />
          </mxGeometry>
        </mxCell>
        <mxCell id="rGoTi4UWK54ArvR2Migu-79" style="edgeStyle=orthogonalEdgeStyle;rounded=0;orthogonalLoop=1;jettySize=auto;html=1;exitX=1;exitY=0;exitDx=0;exitDy=0;exitPerimeter=0;entryX=1;entryY=0.5;entryDx=0;entryDy=0;entryPerimeter=0;strokeWidth=2;endArrow=none;endFill=0;" parent="1" source="rGoTi4UWK54ArvR2Migu-80" target="rGoTi4UWK54ArvR2Migu-87" edge="1">
          <mxGeometry relative="1" as="geometry">
            <mxPoint x="1825" y="1390" as="targetPoint" />
          </mxGeometry>
        </mxCell>
        <mxCell id="rGoTi4UWK54ArvR2Migu-80" value="" style="verticalLabelPosition=bottom;shadow=0;dashed=0;align=center;html=1;verticalAlign=top;shape=mxgraph.electrical.transistors.npn_transistor_5;strokeWidth=2;" parent="1" vertex="1">
          <mxGeometry x="1751" y="1415" width="64" height="100" as="geometry" />
        </mxCell>
        <mxCell id="rGoTi4UWK54ArvR2Migu-81" value="" style="endArrow=none;html=1;rounded=0;strokeWidth=2;" parent="1" edge="1">
          <mxGeometry width="50" height="50" relative="1" as="geometry">
            <mxPoint x="1805" y="1650.15" as="sourcePoint" />
            <mxPoint x="1825" y="1650.15" as="targetPoint" />
          </mxGeometry>
        </mxCell>
        <mxCell id="rGoTi4UWK54ArvR2Migu-82" value="" style="endArrow=none;html=1;rounded=0;strokeWidth=2;" parent="1" edge="1">
          <mxGeometry width="50" height="50" relative="1" as="geometry">
            <mxPoint x="1810" y="1654.89" as="sourcePoint" />
            <mxPoint x="1820" y="1654.89" as="targetPoint" />
          </mxGeometry>
        </mxCell>
        <mxCell id="rGoTi4UWK54ArvR2Migu-83" style="edgeStyle=orthogonalEdgeStyle;rounded=0;orthogonalLoop=1;jettySize=auto;html=1;exitX=1;exitY=0.5;exitDx=0;exitDy=0;exitPerimeter=0;strokeWidth=2;endArrow=none;endFill=0;" parent="1" source="rGoTi4UWK54ArvR2Migu-84" edge="1">
          <mxGeometry relative="1" as="geometry">
            <mxPoint x="1815.2413793103449" y="1650" as="targetPoint" />
          </mxGeometry>
        </mxCell>
        <mxCell id="rGoTi4UWK54ArvR2Migu-84" value="" style="pointerEvents=1;verticalLabelPosition=bottom;shadow=0;dashed=0;align=center;html=1;verticalAlign=top;shape=mxgraph.electrical.resistors.resistor_2;rotation=90;strokeWidth=2;" parent="1" vertex="1">
          <mxGeometry x="1765" y="1562.5" width="100" height="20" as="geometry" />
        </mxCell>
        <mxCell id="rGoTi4UWK54ArvR2Migu-85" style="edgeStyle=orthogonalEdgeStyle;rounded=0;orthogonalLoop=1;jettySize=auto;html=1;exitX=1;exitY=1;exitDx=0;exitDy=0;exitPerimeter=0;entryX=0;entryY=0.5;entryDx=0;entryDy=0;entryPerimeter=0;strokeWidth=2;endArrow=none;endFill=0;" parent="1" source="rGoTi4UWK54ArvR2Migu-80" target="rGoTi4UWK54ArvR2Migu-84" edge="1">
          <mxGeometry relative="1" as="geometry" />
        </mxCell>
        <mxCell id="rGoTi4UWK54ArvR2Migu-86" style="edgeStyle=orthogonalEdgeStyle;rounded=0;orthogonalLoop=1;jettySize=auto;html=1;exitX=0;exitY=0.5;exitDx=0;exitDy=0;exitPerimeter=0;strokeWidth=2;endArrow=none;endFill=0;" parent="1" source="rGoTi4UWK54ArvR2Migu-87" edge="1">
          <mxGeometry relative="1" as="geometry">
            <mxPoint x="1815" y="1210" as="targetPoint" />
          </mxGeometry>
        </mxCell>
        <mxCell id="rGoTi4UWK54ArvR2Migu-87" value="" style="pointerEvents=1;verticalLabelPosition=bottom;shadow=0;dashed=0;align=center;html=1;verticalAlign=top;shape=mxgraph.electrical.resistors.resistor_2;rotation=90;strokeWidth=2;" parent="1" vertex="1">
          <mxGeometry x="1765" y="1320" width="100" height="20" as="geometry" />
        </mxCell>
        <mxCell id="rGoTi4UWK54ArvR2Migu-88" style="edgeStyle=orthogonalEdgeStyle;rounded=0;orthogonalLoop=1;jettySize=auto;html=1;exitX=1;exitY=0.5;exitDx=0;exitDy=0;exitPerimeter=0;strokeWidth=2;endArrow=none;endFill=0;" parent="1" source="rGoTi4UWK54ArvR2Migu-89" edge="1">
          <mxGeometry relative="1" as="geometry">
            <mxPoint x="1684.8571428571427" y="1430" as="targetPoint" />
          </mxGeometry>
        </mxCell>
        <mxCell id="rGoTi4UWK54ArvR2Migu-89" value="" style="pointerEvents=1;verticalLabelPosition=bottom;shadow=0;dashed=0;align=center;html=1;verticalAlign=top;shape=mxgraph.electrical.resistors.resistor_2;rotation=90;strokeWidth=2;" parent="1" vertex="1">
          <mxGeometry x="1635" y="1340" width="100" height="20" as="geometry" />
        </mxCell>
        <mxCell id="rGoTi4UWK54ArvR2Migu-90" style="edgeStyle=orthogonalEdgeStyle;rounded=0;orthogonalLoop=1;jettySize=auto;html=1;exitX=1;exitY=0.5;exitDx=0;exitDy=0;exitPerimeter=0;strokeWidth=2;endArrow=none;endFill=0;" parent="1" source="rGoTi4UWK54ArvR2Migu-91" edge="1">
          <mxGeometry relative="1" as="geometry">
            <mxPoint x="1684.896551724138" y="1650" as="targetPoint" />
          </mxGeometry>
        </mxCell>
        <mxCell id="rGoTi4UWK54ArvR2Migu-91" value="" style="pointerEvents=1;verticalLabelPosition=bottom;shadow=0;dashed=0;align=center;html=1;verticalAlign=top;shape=mxgraph.electrical.resistors.resistor_2;rotation=90;strokeWidth=2;" parent="1" vertex="1">
          <mxGeometry x="1635" y="1537.5" width="100" height="20" as="geometry" />
        </mxCell>
        <mxCell id="rGoTi4UWK54ArvR2Migu-92" style="edgeStyle=orthogonalEdgeStyle;rounded=0;orthogonalLoop=1;jettySize=auto;html=1;exitX=0;exitY=0.5;exitDx=0;exitDy=0;exitPerimeter=0;entryX=1;entryY=0.5;entryDx=0;entryDy=0;entryPerimeter=0;strokeWidth=2;endArrow=none;endFill=0;" parent="1" source="rGoTi4UWK54ArvR2Migu-91" edge="1">
          <mxGeometry relative="1" as="geometry">
            <mxPoint x="1685" y="1430" as="targetPoint" />
          </mxGeometry>
        </mxCell>
        <mxCell id="rGoTi4UWK54ArvR2Migu-93" value="" style="endArrow=none;html=1;rounded=0;strokeWidth=2;" parent="1" edge="1">
          <mxGeometry width="50" height="50" relative="1" as="geometry">
            <mxPoint x="1805" y="1210" as="sourcePoint" />
            <mxPoint x="1825" y="1210" as="targetPoint" />
          </mxGeometry>
        </mxCell>
        <mxCell id="rGoTi4UWK54ArvR2Migu-94" style="edgeStyle=orthogonalEdgeStyle;rounded=0;orthogonalLoop=1;jettySize=auto;html=1;exitX=0;exitY=0.5;exitDx=0;exitDy=0;exitPerimeter=0;entryX=0;entryY=0.5;entryDx=0;entryDy=0;entryPerimeter=0;strokeWidth=2;endArrow=none;endFill=0;" parent="1" source="rGoTi4UWK54ArvR2Migu-89" target="rGoTi4UWK54ArvR2Migu-87" edge="1">
          <mxGeometry relative="1" as="geometry">
            <Array as="points">
              <mxPoint x="1685" y="1250" />
              <mxPoint x="1815" y="1250" />
            </Array>
          </mxGeometry>
        </mxCell>
        <mxCell id="rGoTi4UWK54ArvR2Migu-95" value="" style="endArrow=none;html=1;rounded=0;strokeWidth=2;" parent="1" edge="1">
          <mxGeometry width="50" height="50" relative="1" as="geometry">
            <mxPoint x="1675" y="1650.3000000000002" as="sourcePoint" />
            <mxPoint x="1695" y="1650.15" as="targetPoint" />
          </mxGeometry>
        </mxCell>
        <mxCell id="rGoTi4UWK54ArvR2Migu-96" value="" style="endArrow=none;html=1;rounded=0;strokeWidth=2;" parent="1" edge="1">
          <mxGeometry width="50" height="50" relative="1" as="geometry">
            <mxPoint x="1680" y="1655.0400000000002" as="sourcePoint" />
            <mxPoint x="1690" y="1655.0400000000002" as="targetPoint" />
          </mxGeometry>
        </mxCell>
        <mxCell id="rGoTi4UWK54ArvR2Migu-97" value="$$V_{CC}$$" style="text;html=1;align=center;verticalAlign=middle;whiteSpace=wrap;rounded=0;fontSize=16;" parent="1" vertex="1">
          <mxGeometry x="1785" y="1180" width="60" height="30" as="geometry" />
        </mxCell>
        <mxCell id="rGoTi4UWK54ArvR2Migu-98" value="$$R_1$$" style="text;html=1;align=center;verticalAlign=middle;whiteSpace=wrap;rounded=0;fontSize=16;" parent="1" vertex="1">
          <mxGeometry x="1620" y="1335" width="60" height="30" as="geometry" />
        </mxCell>
        <mxCell id="rGoTi4UWK54ArvR2Migu-99" value="$$R_2$$" style="text;html=1;align=center;verticalAlign=middle;whiteSpace=wrap;rounded=0;fontSize=16;" parent="1" vertex="1">
          <mxGeometry x="1620" y="1535" width="60" height="30" as="geometry" />
        </mxCell>
        <mxCell id="rGoTi4UWK54ArvR2Migu-100" value="$$R_E$$" style="text;html=1;align=center;verticalAlign=middle;whiteSpace=wrap;rounded=0;fontSize=16;" parent="1" vertex="1">
          <mxGeometry x="1820" y="1557.5" width="60" height="30" as="geometry" />
        </mxCell>
        <mxCell id="rGoTi4UWK54ArvR2Migu-101" value="$$R_C$$" style="text;html=1;align=center;verticalAlign=middle;whiteSpace=wrap;rounded=0;fontSize=16;" parent="1" vertex="1">
          <mxGeometry x="1820" y="1315" width="60" height="30" as="geometry" />
        </mxCell>
        <mxCell id="rGoTi4UWK54ArvR2Migu-102" style="edgeStyle=orthogonalEdgeStyle;rounded=0;orthogonalLoop=1;jettySize=auto;html=1;exitX=0;exitY=0.5;exitDx=0;exitDy=0;exitPerimeter=0;strokeWidth=2;endArrow=none;endFill=0;" parent="1" source="rGoTi4UWK54ArvR2Migu-103" edge="1">
          <mxGeometry relative="1" as="geometry">
            <mxPoint x="1815" y="1640" as="targetPoint" />
            <Array as="points">
              <mxPoint x="1760" y="1630" />
              <mxPoint x="1815" y="1630" />
            </Array>
          </mxGeometry>
        </mxCell>
        <mxCell id="rGoTi4UWK54ArvR2Migu-103" value="" style="pointerEvents=1;verticalLabelPosition=bottom;shadow=0;dashed=0;align=center;html=1;verticalAlign=top;shape=mxgraph.electrical.capacitors.capacitor_1;strokeWidth=2;rotation=-90;" parent="1" vertex="1">
          <mxGeometry x="1710" y="1557.5" width="100" height="30" as="geometry" />
        </mxCell>
        <mxCell id="rGoTi4UWK54ArvR2Migu-104" style="edgeStyle=orthogonalEdgeStyle;rounded=0;orthogonalLoop=1;jettySize=auto;html=1;exitX=1;exitY=0.5;exitDx=0;exitDy=0;exitPerimeter=0;entryX=0;entryY=0.5;entryDx=0;entryDy=0;entryPerimeter=0;strokeWidth=2;endArrow=none;endFill=0;" parent="1" source="rGoTi4UWK54ArvR2Migu-103" target="rGoTi4UWK54ArvR2Migu-84" edge="1">
          <mxGeometry relative="1" as="geometry">
            <Array as="points">
              <mxPoint x="1760" y="1520" />
              <mxPoint x="1815" y="1520" />
            </Array>
          </mxGeometry>
        </mxCell>
        <mxCell id="rGoTi4UWK54ArvR2Migu-106" style="edgeStyle=orthogonalEdgeStyle;rounded=0;orthogonalLoop=1;jettySize=auto;html=1;exitX=1;exitY=0;exitDx=0;exitDy=0;exitPerimeter=0;entryX=1;entryY=0.5;entryDx=0;entryDy=0;entryPerimeter=0;strokeWidth=2;endArrow=none;endFill=0;" parent="1" source="rGoTi4UWK54ArvR2Migu-107" target="rGoTi4UWK54ArvR2Migu-114" edge="1">
          <mxGeometry relative="1" as="geometry">
            <mxPoint x="409" y="1400" as="targetPoint" />
          </mxGeometry>
        </mxCell>
        <mxCell id="rGoTi4UWK54ArvR2Migu-141" style="edgeStyle=orthogonalEdgeStyle;rounded=0;orthogonalLoop=1;jettySize=auto;html=1;exitX=1;exitY=1;exitDx=0;exitDy=0;exitPerimeter=0;strokeWidth=2;endArrow=none;endFill=0;" parent="1" source="rGoTi4UWK54ArvR2Migu-107" edge="1">
          <mxGeometry relative="1" as="geometry">
            <mxPoint x="398.83333333333337" y="1570" as="targetPoint" />
          </mxGeometry>
        </mxCell>
        <mxCell id="rGoTi4UWK54ArvR2Migu-107" value="" style="verticalLabelPosition=bottom;shadow=0;dashed=0;align=center;html=1;verticalAlign=top;shape=mxgraph.electrical.transistors.npn_transistor_5;strokeWidth=2;" parent="1" vertex="1">
          <mxGeometry x="335" y="1425" width="64" height="100" as="geometry" />
        </mxCell>
        <mxCell id="rGoTi4UWK54ArvR2Migu-108" value="" style="endArrow=none;html=1;rounded=0;strokeWidth=2;" parent="1" edge="1">
          <mxGeometry width="50" height="50" relative="1" as="geometry">
            <mxPoint x="389" y="1597.65" as="sourcePoint" />
            <mxPoint x="409" y="1597.65" as="targetPoint" />
          </mxGeometry>
        </mxCell>
        <mxCell id="rGoTi4UWK54ArvR2Migu-109" value="" style="endArrow=none;html=1;rounded=0;strokeWidth=2;" parent="1" edge="1">
          <mxGeometry width="50" height="50" relative="1" as="geometry">
            <mxPoint x="394" y="1602.39" as="sourcePoint" />
            <mxPoint x="404" y="1602.39" as="targetPoint" />
          </mxGeometry>
        </mxCell>
        <mxCell id="rGoTi4UWK54ArvR2Migu-110" style="edgeStyle=orthogonalEdgeStyle;rounded=0;orthogonalLoop=1;jettySize=auto;html=1;exitX=1;exitY=0.5;exitDx=0;exitDy=0;exitPerimeter=0;strokeWidth=2;endArrow=none;endFill=0;" parent="1" edge="1">
          <mxGeometry relative="1" as="geometry">
            <mxPoint x="399.2413793103449" y="1597.5" as="targetPoint" />
            <mxPoint x="399" y="1570" as="sourcePoint" />
          </mxGeometry>
        </mxCell>
        <mxCell id="rGoTi4UWK54ArvR2Migu-113" style="edgeStyle=orthogonalEdgeStyle;rounded=0;orthogonalLoop=1;jettySize=auto;html=1;exitX=0;exitY=0.5;exitDx=0;exitDy=0;exitPerimeter=0;strokeWidth=2;endArrow=none;endFill=0;" parent="1" source="rGoTi4UWK54ArvR2Migu-114" edge="1">
          <mxGeometry relative="1" as="geometry">
            <mxPoint x="500" y="1460" as="targetPoint" />
          </mxGeometry>
        </mxCell>
        <mxCell id="rGoTi4UWK54ArvR2Migu-114" value="" style="pointerEvents=1;verticalLabelPosition=bottom;shadow=0;dashed=0;align=center;html=1;verticalAlign=top;shape=mxgraph.electrical.resistors.resistor_2;rotation=90;strokeWidth=2;" parent="1" vertex="1">
          <mxGeometry x="349" y="1360" width="100" height="20" as="geometry" />
        </mxCell>
        <mxCell id="rGoTi4UWK54ArvR2Migu-118" value="$$V_{CC}$$" style="text;html=1;align=center;verticalAlign=middle;whiteSpace=wrap;rounded=0;fontSize=16;" parent="1" vertex="1">
          <mxGeometry x="520" y="1450" width="60" height="30" as="geometry" />
        </mxCell>
        <mxCell id="rGoTi4UWK54ArvR2Migu-121" value="$$R_C$$" style="text;html=1;align=center;verticalAlign=middle;whiteSpace=wrap;rounded=0;fontSize=16;" parent="1" vertex="1">
          <mxGeometry x="399" y="1355" width="60" height="30" as="geometry" />
        </mxCell>
        <mxCell id="rGoTi4UWK54ArvR2Migu-128" value="" style="group" parent="1" vertex="1" connectable="0">
          <mxGeometry x="194" y="1530" width="40" height="100" as="geometry" />
        </mxCell>
        <mxCell id="rGoTi4UWK54ArvR2Migu-124" value="" style="endArrow=none;html=1;rounded=0;strokeWidth=2;" parent="rGoTi4UWK54ArvR2Migu-128" edge="1">
          <mxGeometry width="50" height="50" relative="1" as="geometry">
            <mxPoint y="13.181818181818187" as="sourcePoint" />
            <mxPoint x="40" y="13.181818181818187" as="targetPoint" />
          </mxGeometry>
        </mxCell>
        <mxCell id="rGoTi4UWK54ArvR2Migu-125" value="" style="endArrow=none;html=1;rounded=0;strokeWidth=2;" parent="rGoTi4UWK54ArvR2Migu-128" edge="1">
          <mxGeometry width="50" height="50" relative="1" as="geometry">
            <mxPoint x="10" y="23.181818181818187" as="sourcePoint" />
            <mxPoint x="30" y="23.181818181818187" as="targetPoint" />
          </mxGeometry>
        </mxCell>
        <mxCell id="rGoTi4UWK54ArvR2Migu-126" value="" style="endArrow=none;html=1;rounded=0;strokeWidth=2;" parent="rGoTi4UWK54ArvR2Migu-128" edge="1">
          <mxGeometry width="50" height="50" relative="1" as="geometry">
            <mxPoint x="20" y="-4.545454545454545" as="sourcePoint" />
            <mxPoint x="20" y="13.636363636363637" as="targetPoint" />
          </mxGeometry>
        </mxCell>
        <mxCell id="rGoTi4UWK54ArvR2Migu-127" value="" style="endArrow=none;html=1;rounded=0;strokeWidth=2;" parent="rGoTi4UWK54ArvR2Migu-128" edge="1">
          <mxGeometry width="50" height="50" relative="1" as="geometry">
            <mxPoint x="20" y="23.181818181818187" as="sourcePoint" />
            <mxPoint x="20" y="68.18181818181819" as="targetPoint" />
          </mxGeometry>
        </mxCell>
        <mxCell id="rGoTi4UWK54ArvR2Migu-136" value="" style="endArrow=none;html=1;rounded=0;strokeWidth=2;" parent="rGoTi4UWK54ArvR2Migu-128" edge="1">
          <mxGeometry width="50" height="50" relative="1" as="geometry">
            <mxPoint x="10" y="68" as="sourcePoint" />
            <mxPoint x="30" y="68" as="targetPoint" />
          </mxGeometry>
        </mxCell>
        <mxCell id="rGoTi4UWK54ArvR2Migu-137" value="" style="endArrow=none;html=1;rounded=0;strokeWidth=2;" parent="rGoTi4UWK54ArvR2Migu-128" edge="1">
          <mxGeometry width="50" height="50" relative="1" as="geometry">
            <mxPoint x="15" y="72.74000000000001" as="sourcePoint" />
            <mxPoint x="25" y="72.74000000000001" as="targetPoint" />
          </mxGeometry>
        </mxCell>
        <mxCell id="rGoTi4UWK54ArvR2Migu-129" value="$$V_{BB}$$" style="text;html=1;align=center;verticalAlign=middle;whiteSpace=wrap;rounded=0;fontSize=16;" parent="1" vertex="1">
          <mxGeometry x="234" y="1535" width="60" height="30" as="geometry" />
        </mxCell>
        <mxCell id="rGoTi4UWK54ArvR2Migu-130" value="" style="endArrow=none;html=1;rounded=0;strokeWidth=2;" parent="1" edge="1">
          <mxGeometry width="50" height="50" relative="1" as="geometry">
            <mxPoint x="480" y="1460" as="sourcePoint" />
            <mxPoint x="520" y="1460" as="targetPoint" />
          </mxGeometry>
        </mxCell>
        <mxCell id="rGoTi4UWK54ArvR2Migu-131" value="" style="endArrow=none;html=1;rounded=0;strokeWidth=2;" parent="1" edge="1">
          <mxGeometry width="50" height="50" relative="1" as="geometry">
            <mxPoint x="490" y="1470" as="sourcePoint" />
            <mxPoint x="510" y="1470" as="targetPoint" />
          </mxGeometry>
        </mxCell>
        <mxCell id="rGoTi4UWK54ArvR2Migu-132" value="" style="endArrow=none;html=1;rounded=0;strokeWidth=2;" parent="1" edge="1">
          <mxGeometry width="50" height="50" relative="1" as="geometry">
            <mxPoint x="500" y="1470" as="sourcePoint" />
            <mxPoint x="500" y="1590" as="targetPoint" />
          </mxGeometry>
        </mxCell>
        <mxCell id="rGoTi4UWK54ArvR2Migu-135" style="edgeStyle=orthogonalEdgeStyle;rounded=0;orthogonalLoop=1;jettySize=auto;html=1;exitX=1;exitY=0.5;exitDx=0;exitDy=0;exitPerimeter=0;strokeWidth=2;endArrow=none;endFill=0;" parent="1" edge="1">
          <mxGeometry relative="1" as="geometry">
            <mxPoint x="214" y="1530" as="targetPoint" />
            <mxPoint x="254" y="1475" as="sourcePoint" />
          </mxGeometry>
        </mxCell>
        <mxCell id="rGoTi4UWK54ArvR2Migu-134" value="" style="pointerEvents=1;verticalLabelPosition=bottom;shadow=0;dashed=0;align=center;html=1;verticalAlign=top;shape=mxgraph.electrical.resistors.resistor_2;rotation=-180;strokeWidth=2;" parent="1" vertex="1">
          <mxGeometry x="240" y="1465" width="100" height="20" as="geometry" />
        </mxCell>
        <mxCell id="rGoTi4UWK54ArvR2Migu-143" value="$$R_B$$" style="text;html=1;align=center;verticalAlign=middle;whiteSpace=wrap;rounded=0;fontSize=16;" parent="1" vertex="1">
          <mxGeometry x="275" y="1490" width="60" height="30" as="geometry" />
        </mxCell>
        <mxCell id="rGoTi4UWK54ArvR2Migu-144" value="" style="endArrow=none;html=1;rounded=0;strokeWidth=2;" parent="1" edge="1">
          <mxGeometry width="50" height="50" relative="1" as="geometry">
            <mxPoint x="490" y="1597.65" as="sourcePoint" />
            <mxPoint x="510" y="1597.65" as="targetPoint" />
          </mxGeometry>
        </mxCell>
        <mxCell id="rGoTi4UWK54ArvR2Migu-145" value="" style="endArrow=none;html=1;rounded=0;strokeWidth=2;" parent="1" edge="1">
          <mxGeometry width="50" height="50" relative="1" as="geometry">
            <mxPoint x="495" y="1602.39" as="sourcePoint" />
            <mxPoint x="505" y="1602.39" as="targetPoint" />
          </mxGeometry>
        </mxCell>
        <mxCell id="rGoTi4UWK54ArvR2Migu-146" style="edgeStyle=orthogonalEdgeStyle;rounded=0;orthogonalLoop=1;jettySize=auto;html=1;exitX=1;exitY=0.5;exitDx=0;exitDy=0;exitPerimeter=0;strokeWidth=2;endArrow=none;endFill=0;" parent="1" edge="1">
          <mxGeometry relative="1" as="geometry">
            <mxPoint x="500.2413793103449" y="1597.5" as="targetPoint" />
            <mxPoint x="500" y="1570" as="sourcePoint" />
          </mxGeometry>
        </mxCell>
        <mxCell id="rGoTi4UWK54ArvR2Migu-147" style="edgeStyle=orthogonalEdgeStyle;rounded=0;orthogonalLoop=1;jettySize=auto;html=1;exitX=1;exitY=0;exitDx=0;exitDy=0;exitPerimeter=0;entryX=1;entryY=0.5;entryDx=0;entryDy=0;entryPerimeter=0;strokeWidth=2;endArrow=none;endFill=0;" parent="1" source="rGoTi4UWK54ArvR2Migu-148" target="rGoTi4UWK54ArvR2Migu-153" edge="1">
          <mxGeometry relative="1" as="geometry">
            <mxPoint x="1175" y="1390" as="targetPoint" />
          </mxGeometry>
        </mxCell>
        <mxCell id="rGoTi4UWK54ArvR2Migu-148" value="" style="verticalLabelPosition=bottom;shadow=0;dashed=0;align=center;html=1;verticalAlign=top;shape=mxgraph.electrical.transistors.npn_transistor_5;strokeWidth=2;" parent="1" vertex="1">
          <mxGeometry x="1101" y="1415" width="64" height="100" as="geometry" />
        </mxCell>
        <mxCell id="rGoTi4UWK54ArvR2Migu-149" value="" style="endArrow=none;html=1;rounded=0;strokeWidth=2;" parent="1" edge="1">
          <mxGeometry width="50" height="50" relative="1" as="geometry">
            <mxPoint x="1155" y="1650.15" as="sourcePoint" />
            <mxPoint x="1175" y="1650.15" as="targetPoint" />
          </mxGeometry>
        </mxCell>
        <mxCell id="rGoTi4UWK54ArvR2Migu-150" value="" style="endArrow=none;html=1;rounded=0;strokeWidth=2;" parent="1" edge="1">
          <mxGeometry width="50" height="50" relative="1" as="geometry">
            <mxPoint x="1160" y="1654.89" as="sourcePoint" />
            <mxPoint x="1170" y="1654.89" as="targetPoint" />
          </mxGeometry>
        </mxCell>
        <mxCell id="rGoTi4UWK54ArvR2Migu-152" style="edgeStyle=orthogonalEdgeStyle;rounded=0;orthogonalLoop=1;jettySize=auto;html=1;exitX=0;exitY=0.5;exitDx=0;exitDy=0;exitPerimeter=0;strokeWidth=2;endArrow=none;endFill=0;" parent="1" source="rGoTi4UWK54ArvR2Migu-153" edge="1">
          <mxGeometry relative="1" as="geometry">
            <mxPoint x="1165" y="1210" as="targetPoint" />
          </mxGeometry>
        </mxCell>
        <mxCell id="rGoTi4UWK54ArvR2Migu-153" value="" style="pointerEvents=1;verticalLabelPosition=bottom;shadow=0;dashed=0;align=center;html=1;verticalAlign=top;shape=mxgraph.electrical.resistors.resistor_2;rotation=90;strokeWidth=2;" parent="1" vertex="1">
          <mxGeometry x="1115" y="1320" width="100" height="20" as="geometry" />
        </mxCell>
        <mxCell id="rGoTi4UWK54ArvR2Migu-154" value="" style="pointerEvents=1;verticalLabelPosition=bottom;shadow=0;dashed=0;align=center;html=1;verticalAlign=top;shape=mxgraph.electrical.resistors.resistor_2;rotation=90;strokeWidth=2;" parent="1" vertex="1">
          <mxGeometry x="985" y="1340" width="100" height="20" as="geometry" />
        </mxCell>
        <mxCell id="rGoTi4UWK54ArvR2Migu-155" value="" style="endArrow=none;html=1;rounded=0;strokeWidth=2;" parent="1" edge="1">
          <mxGeometry width="50" height="50" relative="1" as="geometry">
            <mxPoint x="1155" y="1210" as="sourcePoint" />
            <mxPoint x="1175" y="1210" as="targetPoint" />
          </mxGeometry>
        </mxCell>
        <mxCell id="rGoTi4UWK54ArvR2Migu-156" style="edgeStyle=orthogonalEdgeStyle;rounded=0;orthogonalLoop=1;jettySize=auto;html=1;exitX=0;exitY=0.5;exitDx=0;exitDy=0;exitPerimeter=0;entryX=0;entryY=0.5;entryDx=0;entryDy=0;entryPerimeter=0;strokeWidth=2;endArrow=none;endFill=0;" parent="1" source="rGoTi4UWK54ArvR2Migu-154" target="rGoTi4UWK54ArvR2Migu-153" edge="1">
          <mxGeometry relative="1" as="geometry">
            <Array as="points">
              <mxPoint x="1035" y="1250" />
              <mxPoint x="1165" y="1250" />
            </Array>
          </mxGeometry>
        </mxCell>
        <mxCell id="rGoTi4UWK54ArvR2Migu-157" value="$$V_{CC}$$" style="text;html=1;align=center;verticalAlign=middle;whiteSpace=wrap;rounded=0;fontSize=16;" parent="1" vertex="1">
          <mxGeometry x="1135" y="1180" width="60" height="30" as="geometry" />
        </mxCell>
        <mxCell id="rGoTi4UWK54ArvR2Migu-158" value="$$R_B$$" style="text;html=1;align=center;verticalAlign=middle;whiteSpace=wrap;rounded=0;fontSize=16;" parent="1" vertex="1">
          <mxGeometry x="970" y="1345" width="60" height="30" as="geometry" />
        </mxCell>
        <mxCell id="rGoTi4UWK54ArvR2Migu-159" value="$$R_C$$" style="text;html=1;align=center;verticalAlign=middle;whiteSpace=wrap;rounded=0;fontSize=16;" parent="1" vertex="1">
          <mxGeometry x="1170" y="1315" width="60" height="30" as="geometry" />
        </mxCell>
        <mxCell id="rGoTi4UWK54ArvR2Migu-160" style="edgeStyle=orthogonalEdgeStyle;rounded=0;orthogonalLoop=1;jettySize=auto;html=1;exitX=1;exitY=0.5;exitDx=0;exitDy=0;exitPerimeter=0;entryX=0;entryY=0.5;entryDx=0;entryDy=0;entryPerimeter=0;strokeWidth=2;endArrow=none;endFill=0;" parent="1" source="rGoTi4UWK54ArvR2Migu-154" target="rGoTi4UWK54ArvR2Migu-148" edge="1">
          <mxGeometry relative="1" as="geometry" />
        </mxCell>
        <mxCell id="rGoTi4UWK54ArvR2Migu-164" style="edgeStyle=orthogonalEdgeStyle;rounded=0;orthogonalLoop=1;jettySize=auto;html=1;exitX=1;exitY=0.5;exitDx=0;exitDy=0;exitPerimeter=0;strokeWidth=2;endArrow=none;endFill=0;" parent="1" source="rGoTi4UWK54ArvR2Migu-161" edge="1">
          <mxGeometry relative="1" as="geometry">
            <mxPoint x="1165.2608695652175" y="1650" as="targetPoint" />
          </mxGeometry>
        </mxCell>
        <mxCell id="rGoTi4UWK54ArvR2Migu-161" value="" style="pointerEvents=1;verticalLabelPosition=bottom;shadow=0;dashed=0;align=center;html=1;verticalAlign=top;shape=mxgraph.electrical.resistors.resistor_2;rotation=90;strokeWidth=2;" parent="1" vertex="1">
          <mxGeometry x="1115" y="1572.5" width="100" height="20" as="geometry" />
        </mxCell>
        <mxCell id="rGoTi4UWK54ArvR2Migu-163" style="edgeStyle=orthogonalEdgeStyle;rounded=0;orthogonalLoop=1;jettySize=auto;html=1;exitX=1;exitY=1;exitDx=0;exitDy=0;exitPerimeter=0;entryX=0;entryY=0.5;entryDx=0;entryDy=0;entryPerimeter=0;strokeWidth=2;endArrow=none;endFill=0;" parent="1" source="rGoTi4UWK54ArvR2Migu-148" target="rGoTi4UWK54ArvR2Migu-161" edge="1">
          <mxGeometry relative="1" as="geometry" />
        </mxCell>
        <mxCell id="rGoTi4UWK54ArvR2Migu-165" value="$$R_E$$" style="text;html=1;align=center;verticalAlign=middle;whiteSpace=wrap;rounded=0;fontSize=16;" parent="1" vertex="1">
          <mxGeometry x="1170" y="1567.5" width="60" height="30" as="geometry" />
        </mxCell>
        <mxCell id="rGoTi4UWK54ArvR2Migu-166" style="edgeStyle=orthogonalEdgeStyle;rounded=0;orthogonalLoop=1;jettySize=auto;html=1;exitX=0;exitY=0.5;exitDx=0;exitDy=0;exitPerimeter=0;strokeWidth=2;endArrow=none;endFill=0;" parent="1" source="rGoTi4UWK54ArvR2Migu-205" edge="1">
          <mxGeometry relative="1" as="geometry">
            <mxPoint x="2111" y="1465.1904761904761" as="targetPoint" />
          </mxGeometry>
        </mxCell>
        <mxCell id="rGoTi4UWK54ArvR2Migu-167" style="edgeStyle=orthogonalEdgeStyle;rounded=0;orthogonalLoop=1;jettySize=auto;html=1;exitX=1;exitY=0;exitDx=0;exitDy=0;exitPerimeter=0;entryX=1;entryY=0.5;entryDx=0;entryDy=0;entryPerimeter=0;strokeWidth=2;endArrow=none;endFill=0;" parent="1" source="rGoTi4UWK54ArvR2Migu-168" target="rGoTi4UWK54ArvR2Migu-175" edge="1">
          <mxGeometry relative="1" as="geometry">
            <mxPoint x="2251" y="1390" as="targetPoint" />
          </mxGeometry>
        </mxCell>
        <mxCell id="rGoTi4UWK54ArvR2Migu-168" value="" style="verticalLabelPosition=bottom;shadow=0;dashed=0;align=center;html=1;verticalAlign=top;shape=mxgraph.electrical.transistors.npn_transistor_5;strokeWidth=2;" parent="1" vertex="1">
          <mxGeometry x="2177" y="1415" width="64" height="100" as="geometry" />
        </mxCell>
        <mxCell id="rGoTi4UWK54ArvR2Migu-169" value="" style="endArrow=none;html=1;rounded=0;strokeWidth=2;" parent="1" edge="1">
          <mxGeometry width="50" height="50" relative="1" as="geometry">
            <mxPoint x="2231" y="1650.15" as="sourcePoint" />
            <mxPoint x="2251" y="1650.15" as="targetPoint" />
          </mxGeometry>
        </mxCell>
        <mxCell id="rGoTi4UWK54ArvR2Migu-170" value="" style="endArrow=none;html=1;rounded=0;strokeWidth=2;" parent="1" edge="1">
          <mxGeometry width="50" height="50" relative="1" as="geometry">
            <mxPoint x="2236" y="1654.89" as="sourcePoint" />
            <mxPoint x="2246" y="1654.89" as="targetPoint" />
          </mxGeometry>
        </mxCell>
        <mxCell id="rGoTi4UWK54ArvR2Migu-171" style="edgeStyle=orthogonalEdgeStyle;rounded=0;orthogonalLoop=1;jettySize=auto;html=1;exitX=1;exitY=0.5;exitDx=0;exitDy=0;exitPerimeter=0;strokeWidth=2;endArrow=none;endFill=0;" parent="1" source="rGoTi4UWK54ArvR2Migu-172" edge="1">
          <mxGeometry relative="1" as="geometry">
            <mxPoint x="2241.241379310345" y="1650" as="targetPoint" />
          </mxGeometry>
        </mxCell>
        <mxCell id="rGoTi4UWK54ArvR2Migu-172" value="" style="pointerEvents=1;verticalLabelPosition=bottom;shadow=0;dashed=0;align=center;html=1;verticalAlign=top;shape=mxgraph.electrical.resistors.resistor_2;rotation=90;strokeWidth=2;" parent="1" vertex="1">
          <mxGeometry x="2191" y="1562.5" width="100" height="20" as="geometry" />
        </mxCell>
        <mxCell id="rGoTi4UWK54ArvR2Migu-173" style="edgeStyle=orthogonalEdgeStyle;rounded=0;orthogonalLoop=1;jettySize=auto;html=1;exitX=1;exitY=1;exitDx=0;exitDy=0;exitPerimeter=0;entryX=0;entryY=0.5;entryDx=0;entryDy=0;entryPerimeter=0;strokeWidth=2;endArrow=none;endFill=0;" parent="1" source="rGoTi4UWK54ArvR2Migu-168" target="rGoTi4UWK54ArvR2Migu-172" edge="1">
          <mxGeometry relative="1" as="geometry" />
        </mxCell>
        <mxCell id="rGoTi4UWK54ArvR2Migu-174" style="edgeStyle=orthogonalEdgeStyle;rounded=0;orthogonalLoop=1;jettySize=auto;html=1;exitX=0;exitY=0.5;exitDx=0;exitDy=0;exitPerimeter=0;strokeWidth=2;endArrow=none;endFill=0;" parent="1" source="rGoTi4UWK54ArvR2Migu-175" edge="1">
          <mxGeometry relative="1" as="geometry">
            <mxPoint x="2241" y="1210" as="targetPoint" />
          </mxGeometry>
        </mxCell>
        <mxCell id="rGoTi4UWK54ArvR2Migu-175" value="" style="pointerEvents=1;verticalLabelPosition=bottom;shadow=0;dashed=0;align=center;html=1;verticalAlign=top;shape=mxgraph.electrical.resistors.resistor_2;rotation=90;strokeWidth=2;" parent="1" vertex="1">
          <mxGeometry x="2191" y="1320" width="100" height="20" as="geometry" />
        </mxCell>
        <mxCell id="rGoTi4UWK54ArvR2Migu-176" style="edgeStyle=orthogonalEdgeStyle;rounded=0;orthogonalLoop=1;jettySize=auto;html=1;exitX=1;exitY=0.5;exitDx=0;exitDy=0;exitPerimeter=0;strokeWidth=2;endArrow=none;endFill=0;" parent="1" source="rGoTi4UWK54ArvR2Migu-177" edge="1">
          <mxGeometry relative="1" as="geometry">
            <mxPoint x="2110.8571428571427" y="1430" as="targetPoint" />
          </mxGeometry>
        </mxCell>
        <mxCell id="rGoTi4UWK54ArvR2Migu-177" value="" style="pointerEvents=1;verticalLabelPosition=bottom;shadow=0;dashed=0;align=center;html=1;verticalAlign=top;shape=mxgraph.electrical.resistors.resistor_2;rotation=90;strokeWidth=2;" parent="1" vertex="1">
          <mxGeometry x="2061" y="1340" width="100" height="20" as="geometry" />
        </mxCell>
        <mxCell id="rGoTi4UWK54ArvR2Migu-178" style="edgeStyle=orthogonalEdgeStyle;rounded=0;orthogonalLoop=1;jettySize=auto;html=1;exitX=1;exitY=0.5;exitDx=0;exitDy=0;exitPerimeter=0;strokeWidth=2;endArrow=none;endFill=0;" parent="1" source="rGoTi4UWK54ArvR2Migu-179" edge="1">
          <mxGeometry relative="1" as="geometry">
            <mxPoint x="2110.8965517241377" y="1650" as="targetPoint" />
          </mxGeometry>
        </mxCell>
        <mxCell id="rGoTi4UWK54ArvR2Migu-179" value="" style="pointerEvents=1;verticalLabelPosition=bottom;shadow=0;dashed=0;align=center;html=1;verticalAlign=top;shape=mxgraph.electrical.resistors.resistor_2;rotation=90;strokeWidth=2;" parent="1" vertex="1">
          <mxGeometry x="2061" y="1537.5" width="100" height="20" as="geometry" />
        </mxCell>
        <mxCell id="rGoTi4UWK54ArvR2Migu-180" style="edgeStyle=orthogonalEdgeStyle;rounded=0;orthogonalLoop=1;jettySize=auto;html=1;exitX=0;exitY=0.5;exitDx=0;exitDy=0;exitPerimeter=0;entryX=1;entryY=0.5;entryDx=0;entryDy=0;entryPerimeter=0;strokeWidth=2;endArrow=none;endFill=0;" parent="1" source="rGoTi4UWK54ArvR2Migu-179" edge="1">
          <mxGeometry relative="1" as="geometry">
            <mxPoint x="2111" y="1430" as="targetPoint" />
          </mxGeometry>
        </mxCell>
        <mxCell id="rGoTi4UWK54ArvR2Migu-181" value="" style="endArrow=none;html=1;rounded=0;strokeWidth=2;" parent="1" edge="1">
          <mxGeometry width="50" height="50" relative="1" as="geometry">
            <mxPoint x="2231" y="1210" as="sourcePoint" />
            <mxPoint x="2251" y="1210" as="targetPoint" />
          </mxGeometry>
        </mxCell>
        <mxCell id="rGoTi4UWK54ArvR2Migu-182" style="edgeStyle=orthogonalEdgeStyle;rounded=0;orthogonalLoop=1;jettySize=auto;html=1;exitX=0;exitY=0.5;exitDx=0;exitDy=0;exitPerimeter=0;entryX=0;entryY=0.5;entryDx=0;entryDy=0;entryPerimeter=0;strokeWidth=2;endArrow=none;endFill=0;" parent="1" source="rGoTi4UWK54ArvR2Migu-177" target="rGoTi4UWK54ArvR2Migu-175" edge="1">
          <mxGeometry relative="1" as="geometry">
            <Array as="points">
              <mxPoint x="2111" y="1250" />
              <mxPoint x="2241" y="1250" />
            </Array>
          </mxGeometry>
        </mxCell>
        <mxCell id="rGoTi4UWK54ArvR2Migu-183" value="" style="endArrow=none;html=1;rounded=0;strokeWidth=2;" parent="1" edge="1">
          <mxGeometry width="50" height="50" relative="1" as="geometry">
            <mxPoint x="2101" y="1650.3000000000002" as="sourcePoint" />
            <mxPoint x="2121" y="1650.15" as="targetPoint" />
          </mxGeometry>
        </mxCell>
        <mxCell id="rGoTi4UWK54ArvR2Migu-184" value="" style="endArrow=none;html=1;rounded=0;strokeWidth=2;" parent="1" edge="1">
          <mxGeometry width="50" height="50" relative="1" as="geometry">
            <mxPoint x="2106" y="1655.0400000000002" as="sourcePoint" />
            <mxPoint x="2116" y="1655.0400000000002" as="targetPoint" />
          </mxGeometry>
        </mxCell>
        <mxCell id="rGoTi4UWK54ArvR2Migu-185" value="$$V_{CC}$$" style="text;html=1;align=center;verticalAlign=middle;whiteSpace=wrap;rounded=0;fontSize=16;" parent="1" vertex="1">
          <mxGeometry x="2211" y="1180" width="60" height="30" as="geometry" />
        </mxCell>
        <mxCell id="rGoTi4UWK54ArvR2Migu-186" value="$$R_1$$" style="text;html=1;align=center;verticalAlign=middle;whiteSpace=wrap;rounded=0;fontSize=16;" parent="1" vertex="1">
          <mxGeometry x="2046" y="1335" width="60" height="30" as="geometry" />
        </mxCell>
        <mxCell id="rGoTi4UWK54ArvR2Migu-187" value="$$R_2$$" style="text;html=1;align=center;verticalAlign=middle;whiteSpace=wrap;rounded=0;fontSize=16;" parent="1" vertex="1">
          <mxGeometry x="2046" y="1535" width="60" height="30" as="geometry" />
        </mxCell>
        <mxCell id="rGoTi4UWK54ArvR2Migu-188" value="$$R_E$$" style="text;html=1;align=center;verticalAlign=middle;whiteSpace=wrap;rounded=0;fontSize=16;" parent="1" vertex="1">
          <mxGeometry x="2246" y="1557.5" width="60" height="30" as="geometry" />
        </mxCell>
        <mxCell id="rGoTi4UWK54ArvR2Migu-189" value="$$R_C$$" style="text;html=1;align=center;verticalAlign=middle;whiteSpace=wrap;rounded=0;fontSize=16;" parent="1" vertex="1">
          <mxGeometry x="2246" y="1315" width="60" height="30" as="geometry" />
        </mxCell>
        <mxCell id="rGoTi4UWK54ArvR2Migu-190" style="edgeStyle=orthogonalEdgeStyle;rounded=0;orthogonalLoop=1;jettySize=auto;html=1;exitX=0;exitY=0.5;exitDx=0;exitDy=0;exitPerimeter=0;strokeWidth=2;endArrow=none;endFill=0;" parent="1" source="rGoTi4UWK54ArvR2Migu-191" edge="1">
          <mxGeometry relative="1" as="geometry">
            <mxPoint x="2241" y="1640" as="targetPoint" />
            <Array as="points">
              <mxPoint x="2186" y="1630" />
              <mxPoint x="2241" y="1630" />
            </Array>
          </mxGeometry>
        </mxCell>
        <mxCell id="rGoTi4UWK54ArvR2Migu-191" value="" style="pointerEvents=1;verticalLabelPosition=bottom;shadow=0;dashed=0;align=center;html=1;verticalAlign=top;shape=mxgraph.electrical.capacitors.capacitor_1;strokeWidth=2;rotation=-90;" parent="1" vertex="1">
          <mxGeometry x="2136" y="1557.5" width="100" height="30" as="geometry" />
        </mxCell>
        <mxCell id="rGoTi4UWK54ArvR2Migu-192" style="edgeStyle=orthogonalEdgeStyle;rounded=0;orthogonalLoop=1;jettySize=auto;html=1;exitX=1;exitY=0.5;exitDx=0;exitDy=0;exitPerimeter=0;entryX=0;entryY=0.5;entryDx=0;entryDy=0;entryPerimeter=0;strokeWidth=2;endArrow=none;endFill=0;" parent="1" source="rGoTi4UWK54ArvR2Migu-191" target="rGoTi4UWK54ArvR2Migu-172" edge="1">
          <mxGeometry relative="1" as="geometry">
            <Array as="points">
              <mxPoint x="2186" y="1520" />
              <mxPoint x="2241" y="1520" />
            </Array>
          </mxGeometry>
        </mxCell>
        <mxCell id="rGoTi4UWK54ArvR2Migu-195" style="edgeStyle=orthogonalEdgeStyle;rounded=0;orthogonalLoop=1;jettySize=auto;html=1;exitX=0;exitY=0.5;exitDx=0;exitDy=0;exitPerimeter=0;strokeWidth=2;endArrow=none;endFill=0;" parent="1" source="rGoTi4UWK54ArvR2Migu-193" edge="1">
          <mxGeometry relative="1" as="geometry">
            <mxPoint x="2240.0000000000005" y="1390" as="targetPoint" />
            <Array as="points">
              <mxPoint x="2380" y="1390" />
            </Array>
          </mxGeometry>
        </mxCell>
        <mxCell id="rGoTi4UWK54ArvR2Migu-198" style="edgeStyle=orthogonalEdgeStyle;rounded=0;orthogonalLoop=1;jettySize=auto;html=1;exitX=1;exitY=0.5;exitDx=0;exitDy=0;exitPerimeter=0;strokeWidth=2;endArrow=none;endFill=0;" parent="1" source="rGoTi4UWK54ArvR2Migu-193" edge="1">
          <mxGeometry relative="1" as="geometry">
            <mxPoint x="2379.906976744186" y="1650" as="targetPoint" />
          </mxGeometry>
        </mxCell>
        <mxCell id="rGoTi4UWK54ArvR2Migu-193" value="" style="pointerEvents=1;verticalLabelPosition=bottom;shadow=0;dashed=0;align=center;html=1;verticalAlign=top;shape=mxgraph.electrical.resistors.resistor_2;rotation=90;strokeWidth=2;" parent="1" vertex="1">
          <mxGeometry x="2330" y="1480" width="100" height="20" as="geometry" />
        </mxCell>
        <mxCell id="rGoTi4UWK54ArvR2Migu-196" value="" style="endArrow=none;html=1;rounded=0;strokeWidth=2;" parent="1" edge="1">
          <mxGeometry width="50" height="50" relative="1" as="geometry">
            <mxPoint x="2370" y="1650" as="sourcePoint" />
            <mxPoint x="2390" y="1650" as="targetPoint" />
          </mxGeometry>
        </mxCell>
        <mxCell id="rGoTi4UWK54ArvR2Migu-197" value="" style="endArrow=none;html=1;rounded=0;strokeWidth=2;" parent="1" edge="1">
          <mxGeometry width="50" height="50" relative="1" as="geometry">
            <mxPoint x="2375" y="1654.74" as="sourcePoint" />
            <mxPoint x="2385" y="1654.74" as="targetPoint" />
          </mxGeometry>
        </mxCell>
        <mxCell id="rGoTi4UWK54ArvR2Migu-201" style="edgeStyle=orthogonalEdgeStyle;rounded=0;orthogonalLoop=1;jettySize=auto;html=1;exitX=0.5;exitY=0;exitDx=0;exitDy=0;exitPerimeter=0;strokeWidth=2;endArrow=none;endFill=0;" parent="1" source="rGoTi4UWK54ArvR2Migu-199" edge="1">
          <mxGeometry relative="1" as="geometry">
            <mxPoint x="2110" y="1465" as="targetPoint" />
            <mxPoint x="1990" y="1530" as="sourcePoint" />
            <Array as="points">
              <mxPoint x="1990" y="1465" />
            </Array>
          </mxGeometry>
        </mxCell>
        <mxCell id="rGoTi4UWK54ArvR2Migu-204" style="edgeStyle=orthogonalEdgeStyle;rounded=0;orthogonalLoop=1;jettySize=auto;html=1;exitX=0.5;exitY=1;exitDx=0;exitDy=0;exitPerimeter=0;strokeWidth=2;endArrow=none;endFill=0;" parent="1" source="rGoTi4UWK54ArvR2Migu-199" edge="1">
          <mxGeometry relative="1" as="geometry">
            <mxPoint x="1989.9444444444443" y="1650" as="targetPoint" />
          </mxGeometry>
        </mxCell>
        <mxCell id="rGoTi4UWK54ArvR2Migu-199" value="" style="pointerEvents=1;verticalLabelPosition=bottom;shadow=0;dashed=0;align=center;html=1;verticalAlign=top;shape=mxgraph.electrical.signal_sources.source;aspect=fixed;points=[[0.5,0,0],[1,0.5,0],[0.5,1,0],[0,0.5,0]];elSignalType=ac;strokeWidth=2;" parent="1" vertex="1">
          <mxGeometry x="1970" y="1525" width="40" height="40" as="geometry" />
        </mxCell>
        <mxCell id="rGoTi4UWK54ArvR2Migu-202" value="" style="endArrow=none;html=1;rounded=0;strokeWidth=2;" parent="1" edge="1">
          <mxGeometry width="50" height="50" relative="1" as="geometry">
            <mxPoint x="1980" y="1650.15" as="sourcePoint" />
            <mxPoint x="2000" y="1650" as="targetPoint" />
          </mxGeometry>
        </mxCell>
        <mxCell id="rGoTi4UWK54ArvR2Migu-203" value="" style="endArrow=none;html=1;rounded=0;strokeWidth=2;" parent="1" edge="1">
          <mxGeometry width="50" height="50" relative="1" as="geometry">
            <mxPoint x="1985" y="1654.89" as="sourcePoint" />
            <mxPoint x="1995" y="1654.89" as="targetPoint" />
          </mxGeometry>
        </mxCell>
        <mxCell id="rGoTi4UWK54ArvR2Migu-206" value="" style="edgeStyle=orthogonalEdgeStyle;rounded=0;orthogonalLoop=1;jettySize=auto;html=1;exitX=0;exitY=0.5;exitDx=0;exitDy=0;exitPerimeter=0;strokeWidth=2;endArrow=none;endFill=0;" parent="1" source="rGoTi4UWK54ArvR2Migu-168" target="rGoTi4UWK54ArvR2Migu-205" edge="1">
          <mxGeometry relative="1" as="geometry">
            <mxPoint x="2111" y="1465.1904761904761" as="targetPoint" />
            <mxPoint x="2177" y="1465" as="sourcePoint" />
          </mxGeometry>
        </mxCell>
        <mxCell id="rGoTi4UWK54ArvR2Migu-205" value="" style="ellipse;whiteSpace=wrap;html=1;aspect=fixed;fillColor=#000000;" parent="1" vertex="1">
          <mxGeometry x="2106" y="1460" width="10" height="10" as="geometry" />
        </mxCell>
        <mxCell id="rGoTi4UWK54ArvR2Migu-207" style="edgeStyle=orthogonalEdgeStyle;rounded=0;orthogonalLoop=1;jettySize=auto;html=1;exitX=0;exitY=0.5;exitDx=0;exitDy=0;exitPerimeter=0;strokeWidth=2;endArrow=none;endFill=0;" parent="1" source="rGoTi4UWK54ArvR2Migu-245" edge="1">
          <mxGeometry relative="1" as="geometry">
            <mxPoint x="2701" y="1465.1904761904761" as="targetPoint" />
          </mxGeometry>
        </mxCell>
        <mxCell id="rGoTi4UWK54ArvR2Migu-208" style="edgeStyle=orthogonalEdgeStyle;rounded=0;orthogonalLoop=1;jettySize=auto;html=1;exitX=1;exitY=0;exitDx=0;exitDy=0;exitPerimeter=0;entryX=1;entryY=0.5;entryDx=0;entryDy=0;entryPerimeter=0;strokeWidth=2;endArrow=none;endFill=0;" parent="1" source="rGoTi4UWK54ArvR2Migu-209" target="rGoTi4UWK54ArvR2Migu-216" edge="1">
          <mxGeometry relative="1" as="geometry">
            <mxPoint x="2841" y="1390" as="targetPoint" />
          </mxGeometry>
        </mxCell>
        <mxCell id="rGoTi4UWK54ArvR2Migu-209" value="" style="verticalLabelPosition=bottom;shadow=0;dashed=0;align=center;html=1;verticalAlign=top;shape=mxgraph.electrical.transistors.npn_transistor_5;strokeWidth=2;" parent="1" vertex="1">
          <mxGeometry x="2767" y="1415" width="64" height="100" as="geometry" />
        </mxCell>
        <mxCell id="rGoTi4UWK54ArvR2Migu-210" value="" style="endArrow=none;html=1;rounded=0;strokeWidth=2;" parent="1" edge="1">
          <mxGeometry width="50" height="50" relative="1" as="geometry">
            <mxPoint x="2821" y="1650.15" as="sourcePoint" />
            <mxPoint x="2841" y="1650.15" as="targetPoint" />
          </mxGeometry>
        </mxCell>
        <mxCell id="rGoTi4UWK54ArvR2Migu-211" value="" style="endArrow=none;html=1;rounded=0;strokeWidth=2;" parent="1" edge="1">
          <mxGeometry width="50" height="50" relative="1" as="geometry">
            <mxPoint x="2826" y="1654.89" as="sourcePoint" />
            <mxPoint x="2836" y="1654.89" as="targetPoint" />
          </mxGeometry>
        </mxCell>
        <mxCell id="rGoTi4UWK54ArvR2Migu-212" style="edgeStyle=orthogonalEdgeStyle;rounded=0;orthogonalLoop=1;jettySize=auto;html=1;exitX=1;exitY=0.5;exitDx=0;exitDy=0;exitPerimeter=0;strokeWidth=2;endArrow=none;endFill=0;" parent="1" source="rGoTi4UWK54ArvR2Migu-213" edge="1">
          <mxGeometry relative="1" as="geometry">
            <mxPoint x="2831.241379310345" y="1650" as="targetPoint" />
          </mxGeometry>
        </mxCell>
        <mxCell id="rGoTi4UWK54ArvR2Migu-213" value="" style="pointerEvents=1;verticalLabelPosition=bottom;shadow=0;dashed=0;align=center;html=1;verticalAlign=top;shape=mxgraph.electrical.resistors.resistor_2;rotation=90;strokeWidth=2;" parent="1" vertex="1">
          <mxGeometry x="2781" y="1562.5" width="100" height="20" as="geometry" />
        </mxCell>
        <mxCell id="rGoTi4UWK54ArvR2Migu-214" style="edgeStyle=orthogonalEdgeStyle;rounded=0;orthogonalLoop=1;jettySize=auto;html=1;exitX=1;exitY=1;exitDx=0;exitDy=0;exitPerimeter=0;entryX=0;entryY=0.5;entryDx=0;entryDy=0;entryPerimeter=0;strokeWidth=2;endArrow=none;endFill=0;" parent="1" source="rGoTi4UWK54ArvR2Migu-209" target="rGoTi4UWK54ArvR2Migu-213" edge="1">
          <mxGeometry relative="1" as="geometry" />
        </mxCell>
        <mxCell id="rGoTi4UWK54ArvR2Migu-215" style="edgeStyle=orthogonalEdgeStyle;rounded=0;orthogonalLoop=1;jettySize=auto;html=1;exitX=0;exitY=0.5;exitDx=0;exitDy=0;exitPerimeter=0;strokeWidth=2;endArrow=none;endFill=0;" parent="1" source="rGoTi4UWK54ArvR2Migu-216" edge="1">
          <mxGeometry relative="1" as="geometry">
            <mxPoint x="2831" y="1210" as="targetPoint" />
          </mxGeometry>
        </mxCell>
        <mxCell id="rGoTi4UWK54ArvR2Migu-216" value="" style="pointerEvents=1;verticalLabelPosition=bottom;shadow=0;dashed=0;align=center;html=1;verticalAlign=top;shape=mxgraph.electrical.resistors.resistor_2;rotation=90;strokeWidth=2;" parent="1" vertex="1">
          <mxGeometry x="2781" y="1320" width="100" height="20" as="geometry" />
        </mxCell>
        <mxCell id="rGoTi4UWK54ArvR2Migu-217" style="edgeStyle=orthogonalEdgeStyle;rounded=0;orthogonalLoop=1;jettySize=auto;html=1;exitX=1;exitY=0.5;exitDx=0;exitDy=0;exitPerimeter=0;strokeWidth=2;endArrow=none;endFill=0;" parent="1" source="rGoTi4UWK54ArvR2Migu-218" edge="1">
          <mxGeometry relative="1" as="geometry">
            <mxPoint x="2700.8571428571427" y="1430" as="targetPoint" />
          </mxGeometry>
        </mxCell>
        <mxCell id="rGoTi4UWK54ArvR2Migu-218" value="" style="pointerEvents=1;verticalLabelPosition=bottom;shadow=0;dashed=0;align=center;html=1;verticalAlign=top;shape=mxgraph.electrical.resistors.resistor_2;rotation=90;strokeWidth=2;" parent="1" vertex="1">
          <mxGeometry x="2651" y="1340" width="100" height="20" as="geometry" />
        </mxCell>
        <mxCell id="rGoTi4UWK54ArvR2Migu-219" style="edgeStyle=orthogonalEdgeStyle;rounded=0;orthogonalLoop=1;jettySize=auto;html=1;exitX=1;exitY=0.5;exitDx=0;exitDy=0;exitPerimeter=0;strokeWidth=2;endArrow=none;endFill=0;" parent="1" source="rGoTi4UWK54ArvR2Migu-220" edge="1">
          <mxGeometry relative="1" as="geometry">
            <mxPoint x="2700.8965517241377" y="1650" as="targetPoint" />
          </mxGeometry>
        </mxCell>
        <mxCell id="rGoTi4UWK54ArvR2Migu-220" value="" style="pointerEvents=1;verticalLabelPosition=bottom;shadow=0;dashed=0;align=center;html=1;verticalAlign=top;shape=mxgraph.electrical.resistors.resistor_2;rotation=90;strokeWidth=2;" parent="1" vertex="1">
          <mxGeometry x="2651" y="1537.5" width="100" height="20" as="geometry" />
        </mxCell>
        <mxCell id="rGoTi4UWK54ArvR2Migu-221" style="edgeStyle=orthogonalEdgeStyle;rounded=0;orthogonalLoop=1;jettySize=auto;html=1;exitX=0;exitY=0.5;exitDx=0;exitDy=0;exitPerimeter=0;entryX=1;entryY=0.5;entryDx=0;entryDy=0;entryPerimeter=0;strokeWidth=2;endArrow=none;endFill=0;" parent="1" source="rGoTi4UWK54ArvR2Migu-220" edge="1">
          <mxGeometry relative="1" as="geometry">
            <mxPoint x="2701" y="1430" as="targetPoint" />
          </mxGeometry>
        </mxCell>
        <mxCell id="rGoTi4UWK54ArvR2Migu-222" value="" style="endArrow=none;html=1;rounded=0;strokeWidth=2;" parent="1" edge="1">
          <mxGeometry width="50" height="50" relative="1" as="geometry">
            <mxPoint x="2821" y="1210" as="sourcePoint" />
            <mxPoint x="2841" y="1210" as="targetPoint" />
          </mxGeometry>
        </mxCell>
        <mxCell id="rGoTi4UWK54ArvR2Migu-223" style="edgeStyle=orthogonalEdgeStyle;rounded=0;orthogonalLoop=1;jettySize=auto;html=1;exitX=0;exitY=0.5;exitDx=0;exitDy=0;exitPerimeter=0;entryX=0;entryY=0.5;entryDx=0;entryDy=0;entryPerimeter=0;strokeWidth=2;endArrow=none;endFill=0;" parent="1" source="rGoTi4UWK54ArvR2Migu-218" target="rGoTi4UWK54ArvR2Migu-216" edge="1">
          <mxGeometry relative="1" as="geometry">
            <Array as="points">
              <mxPoint x="2701" y="1250" />
              <mxPoint x="2831" y="1250" />
            </Array>
          </mxGeometry>
        </mxCell>
        <mxCell id="rGoTi4UWK54ArvR2Migu-224" value="" style="endArrow=none;html=1;rounded=0;strokeWidth=2;" parent="1" edge="1">
          <mxGeometry width="50" height="50" relative="1" as="geometry">
            <mxPoint x="2691" y="1650.3000000000002" as="sourcePoint" />
            <mxPoint x="2711" y="1650.15" as="targetPoint" />
          </mxGeometry>
        </mxCell>
        <mxCell id="rGoTi4UWK54ArvR2Migu-225" value="" style="endArrow=none;html=1;rounded=0;strokeWidth=2;" parent="1" edge="1">
          <mxGeometry width="50" height="50" relative="1" as="geometry">
            <mxPoint x="2696" y="1655.0400000000002" as="sourcePoint" />
            <mxPoint x="2706" y="1655.0400000000002" as="targetPoint" />
          </mxGeometry>
        </mxCell>
        <mxCell id="rGoTi4UWK54ArvR2Migu-226" value="$$V_{CC}$$" style="text;html=1;align=center;verticalAlign=middle;whiteSpace=wrap;rounded=0;fontSize=16;" parent="1" vertex="1">
          <mxGeometry x="2801" y="1180" width="60" height="30" as="geometry" />
        </mxCell>
        <mxCell id="rGoTi4UWK54ArvR2Migu-227" value="$$R_1$$" style="text;html=1;align=center;verticalAlign=middle;whiteSpace=wrap;rounded=0;fontSize=16;" parent="1" vertex="1">
          <mxGeometry x="2636" y="1335" width="60" height="30" as="geometry" />
        </mxCell>
        <mxCell id="rGoTi4UWK54ArvR2Migu-228" value="$$R_2$$" style="text;html=1;align=center;verticalAlign=middle;whiteSpace=wrap;rounded=0;fontSize=16;" parent="1" vertex="1">
          <mxGeometry x="2636" y="1535" width="60" height="30" as="geometry" />
        </mxCell>
        <mxCell id="rGoTi4UWK54ArvR2Migu-229" value="$$R_E$$" style="text;html=1;align=center;verticalAlign=middle;whiteSpace=wrap;rounded=0;fontSize=16;" parent="1" vertex="1">
          <mxGeometry x="2836" y="1557.5" width="60" height="30" as="geometry" />
        </mxCell>
        <mxCell id="rGoTi4UWK54ArvR2Migu-230" value="$$R_C$$" style="text;html=1;align=center;verticalAlign=middle;whiteSpace=wrap;rounded=0;fontSize=16;" parent="1" vertex="1">
          <mxGeometry x="2836" y="1315" width="60" height="30" as="geometry" />
        </mxCell>
        <mxCell id="rGoTi4UWK54ArvR2Migu-231" style="edgeStyle=orthogonalEdgeStyle;rounded=0;orthogonalLoop=1;jettySize=auto;html=1;exitX=0;exitY=0.5;exitDx=0;exitDy=0;exitPerimeter=0;strokeWidth=2;endArrow=none;endFill=0;" parent="1" source="rGoTi4UWK54ArvR2Migu-232" edge="1">
          <mxGeometry relative="1" as="geometry">
            <mxPoint x="2831" y="1640" as="targetPoint" />
            <Array as="points">
              <mxPoint x="2776" y="1630" />
              <mxPoint x="2831" y="1630" />
            </Array>
          </mxGeometry>
        </mxCell>
        <mxCell id="rGoTi4UWK54ArvR2Migu-232" value="" style="pointerEvents=1;verticalLabelPosition=bottom;shadow=0;dashed=0;align=center;html=1;verticalAlign=top;shape=mxgraph.electrical.capacitors.capacitor_1;strokeWidth=2;rotation=-90;" parent="1" vertex="1">
          <mxGeometry x="2726" y="1557.5" width="100" height="30" as="geometry" />
        </mxCell>
        <mxCell id="rGoTi4UWK54ArvR2Migu-233" style="edgeStyle=orthogonalEdgeStyle;rounded=0;orthogonalLoop=1;jettySize=auto;html=1;exitX=1;exitY=0.5;exitDx=0;exitDy=0;exitPerimeter=0;entryX=0;entryY=0.5;entryDx=0;entryDy=0;entryPerimeter=0;strokeWidth=2;endArrow=none;endFill=0;" parent="1" source="rGoTi4UWK54ArvR2Migu-232" target="rGoTi4UWK54ArvR2Migu-213" edge="1">
          <mxGeometry relative="1" as="geometry">
            <Array as="points">
              <mxPoint x="2776" y="1520" />
              <mxPoint x="2831" y="1520" />
            </Array>
          </mxGeometry>
        </mxCell>
        <mxCell id="rGoTi4UWK54ArvR2Migu-235" style="edgeStyle=orthogonalEdgeStyle;rounded=0;orthogonalLoop=1;jettySize=auto;html=1;exitX=1;exitY=0.5;exitDx=0;exitDy=0;exitPerimeter=0;strokeWidth=2;endArrow=none;endFill=0;" parent="1" source="rGoTi4UWK54ArvR2Migu-236" edge="1">
          <mxGeometry relative="1" as="geometry">
            <mxPoint x="2969.906976744186" y="1650" as="targetPoint" />
          </mxGeometry>
        </mxCell>
        <mxCell id="rGoTi4UWK54ArvR2Migu-236" value="" style="pointerEvents=1;verticalLabelPosition=bottom;shadow=0;dashed=0;align=center;html=1;verticalAlign=top;shape=mxgraph.electrical.resistors.resistor_2;rotation=90;strokeWidth=2;" parent="1" vertex="1">
          <mxGeometry x="2920" y="1480" width="100" height="20" as="geometry" />
        </mxCell>
        <mxCell id="rGoTi4UWK54ArvR2Migu-237" value="" style="endArrow=none;html=1;rounded=0;strokeWidth=2;" parent="1" edge="1">
          <mxGeometry width="50" height="50" relative="1" as="geometry">
            <mxPoint x="2960" y="1650" as="sourcePoint" />
            <mxPoint x="2980" y="1650" as="targetPoint" />
          </mxGeometry>
        </mxCell>
        <mxCell id="rGoTi4UWK54ArvR2Migu-238" value="" style="endArrow=none;html=1;rounded=0;strokeWidth=2;" parent="1" edge="1">
          <mxGeometry width="50" height="50" relative="1" as="geometry">
            <mxPoint x="2965" y="1654.74" as="sourcePoint" />
            <mxPoint x="2975" y="1654.74" as="targetPoint" />
          </mxGeometry>
        </mxCell>
        <mxCell id="rGoTi4UWK54ArvR2Migu-240" style="edgeStyle=orthogonalEdgeStyle;rounded=0;orthogonalLoop=1;jettySize=auto;html=1;exitX=0.5;exitY=1;exitDx=0;exitDy=0;exitPerimeter=0;strokeWidth=2;endArrow=none;endFill=0;" parent="1" source="rGoTi4UWK54ArvR2Migu-241" edge="1">
          <mxGeometry relative="1" as="geometry">
            <mxPoint x="2579.9444444444443" y="1650" as="targetPoint" />
          </mxGeometry>
        </mxCell>
        <mxCell id="rGoTi4UWK54ArvR2Migu-241" value="" style="pointerEvents=1;verticalLabelPosition=bottom;shadow=0;dashed=0;align=center;html=1;verticalAlign=top;shape=mxgraph.electrical.signal_sources.source;aspect=fixed;points=[[0.5,0,0],[1,0.5,0],[0.5,1,0],[0,0.5,0]];elSignalType=ac;strokeWidth=2;" parent="1" vertex="1">
          <mxGeometry x="2560" y="1525" width="40" height="40" as="geometry" />
        </mxCell>
        <mxCell id="rGoTi4UWK54ArvR2Migu-242" value="" style="endArrow=none;html=1;rounded=0;strokeWidth=2;" parent="1" edge="1">
          <mxGeometry width="50" height="50" relative="1" as="geometry">
            <mxPoint x="2570" y="1650.15" as="sourcePoint" />
            <mxPoint x="2590" y="1650" as="targetPoint" />
          </mxGeometry>
        </mxCell>
        <mxCell id="rGoTi4UWK54ArvR2Migu-243" value="" style="endArrow=none;html=1;rounded=0;strokeWidth=2;" parent="1" edge="1">
          <mxGeometry width="50" height="50" relative="1" as="geometry">
            <mxPoint x="2575" y="1654.89" as="sourcePoint" />
            <mxPoint x="2585" y="1654.89" as="targetPoint" />
          </mxGeometry>
        </mxCell>
        <mxCell id="rGoTi4UWK54ArvR2Migu-244" value="" style="edgeStyle=orthogonalEdgeStyle;rounded=0;orthogonalLoop=1;jettySize=auto;html=1;exitX=0;exitY=0.5;exitDx=0;exitDy=0;exitPerimeter=0;strokeWidth=2;endArrow=none;endFill=0;" parent="1" source="rGoTi4UWK54ArvR2Migu-209" target="rGoTi4UWK54ArvR2Migu-245" edge="1">
          <mxGeometry relative="1" as="geometry">
            <mxPoint x="2701" y="1465.1904761904761" as="targetPoint" />
            <mxPoint x="2767" y="1465" as="sourcePoint" />
          </mxGeometry>
        </mxCell>
        <mxCell id="rGoTi4UWK54ArvR2Migu-245" value="" style="ellipse;whiteSpace=wrap;html=1;aspect=fixed;fillColor=#000000;" parent="1" vertex="1">
          <mxGeometry x="2696" y="1460" width="10" height="10" as="geometry" />
        </mxCell>
        <mxCell id="rGoTi4UWK54ArvR2Migu-246" value="$$V_i$$" style="text;html=1;align=center;verticalAlign=middle;whiteSpace=wrap;rounded=0;fontSize=16;" parent="1" vertex="1">
          <mxGeometry x="2001" y="1532.5" width="60" height="30" as="geometry" />
        </mxCell>
        <mxCell id="rGoTi4UWK54ArvR2Migu-247" value="$$R_L$$" style="text;html=1;align=center;verticalAlign=middle;whiteSpace=wrap;rounded=0;fontSize=16;" parent="1" vertex="1">
          <mxGeometry x="2382" y="1475" width="60" height="30" as="geometry" />
        </mxCell>
        <mxCell id="rGoTi4UWK54ArvR2Migu-248" value="$$C_E$$" style="text;html=1;align=center;verticalAlign=middle;whiteSpace=wrap;rounded=0;fontSize=16;" parent="1" vertex="1">
          <mxGeometry x="2131" y="1572.5" width="60" height="30" as="geometry" />
        </mxCell>
        <mxCell id="rGoTi4UWK54ArvR2Migu-249" value="$$R_L$$" style="text;html=1;align=center;verticalAlign=middle;whiteSpace=wrap;rounded=0;fontSize=16;" parent="1" vertex="1">
          <mxGeometry x="2970" y="1475" width="60" height="30" as="geometry" />
        </mxCell>
        <mxCell id="rGoTi4UWK54ArvR2Migu-250" value="$$C_E$$" style="text;html=1;align=center;verticalAlign=middle;whiteSpace=wrap;rounded=0;fontSize=16;" parent="1" vertex="1">
          <mxGeometry x="2721" y="1572.5" width="60" height="30" as="geometry" />
        </mxCell>
        <mxCell id="rGoTi4UWK54ArvR2Migu-251" value="$$V_i$$" style="text;html=1;align=center;verticalAlign=middle;whiteSpace=wrap;rounded=0;fontSize=16;" parent="1" vertex="1">
          <mxGeometry x="2591" y="1532.5" width="60" height="30" as="geometry" />
        </mxCell>
        <mxCell id="rGoTi4UWK54ArvR2Migu-252" value="" style="pointerEvents=1;verticalLabelPosition=bottom;shadow=0;dashed=0;align=center;html=1;verticalAlign=top;shape=mxgraph.electrical.capacitors.capacitor_1;strokeWidth=2;rotation=0;" parent="1" vertex="1">
          <mxGeometry x="2596" y="1450" width="100" height="30" as="geometry" />
        </mxCell>
        <mxCell id="rGoTi4UWK54ArvR2Migu-255" style="edgeStyle=orthogonalEdgeStyle;rounded=0;orthogonalLoop=1;jettySize=auto;html=1;exitX=0;exitY=0.5;exitDx=0;exitDy=0;exitPerimeter=0;entryX=0.5;entryY=0;entryDx=0;entryDy=0;entryPerimeter=0;strokeWidth=2;endArrow=none;endFill=0;" parent="1" source="rGoTi4UWK54ArvR2Migu-252" target="rGoTi4UWK54ArvR2Migu-241" edge="1">
          <mxGeometry relative="1" as="geometry">
            <Array as="points">
              <mxPoint x="2580" y="1465" />
            </Array>
          </mxGeometry>
        </mxCell>
        <mxCell id="rGoTi4UWK54ArvR2Migu-258" style="edgeStyle=orthogonalEdgeStyle;rounded=0;orthogonalLoop=1;jettySize=auto;html=1;exitX=0;exitY=0.5;exitDx=0;exitDy=0;exitPerimeter=0;strokeWidth=2;endArrow=none;endFill=0;" parent="1" source="rGoTi4UWK54ArvR2Migu-256" edge="1">
          <mxGeometry relative="1" as="geometry">
            <mxPoint x="2830.0000000000005" y="1399.8275862068967" as="targetPoint" />
          </mxGeometry>
        </mxCell>
        <mxCell id="rGoTi4UWK54ArvR2Migu-256" value="" style="pointerEvents=1;verticalLabelPosition=bottom;shadow=0;dashed=0;align=center;html=1;verticalAlign=top;shape=mxgraph.electrical.capacitors.capacitor_1;strokeWidth=2;rotation=0;" parent="1" vertex="1">
          <mxGeometry x="2845" y="1385" width="100" height="30" as="geometry" />
        </mxCell>
        <mxCell id="rGoTi4UWK54ArvR2Migu-260" style="edgeStyle=orthogonalEdgeStyle;rounded=0;orthogonalLoop=1;jettySize=auto;html=1;exitX=1;exitY=0.5;exitDx=0;exitDy=0;exitPerimeter=0;entryX=0;entryY=0.5;entryDx=0;entryDy=0;entryPerimeter=0;strokeWidth=2;endArrow=none;endFill=0;" parent="1" source="rGoTi4UWK54ArvR2Migu-256" target="rGoTi4UWK54ArvR2Migu-236" edge="1">
          <mxGeometry relative="1" as="geometry" />
        </mxCell>
        <mxCell id="rGoTi4UWK54ArvR2Migu-262" value="" style="endArrow=classic;html=1;rounded=0;strokeWidth=2;endSize=10;" parent="1" edge="1">
          <mxGeometry width="50" height="50" relative="1" as="geometry">
            <mxPoint x="240" y="2080" as="sourcePoint" />
            <mxPoint x="240" y="1800" as="targetPoint" />
          </mxGeometry>
        </mxCell>
        <mxCell id="rGoTi4UWK54ArvR2Migu-263" value="" style="endArrow=classic;html=1;rounded=0;strokeWidth=2;endSize=10;" parent="1" edge="1">
          <mxGeometry width="50" height="50" relative="1" as="geometry">
            <mxPoint x="240" y="2080" as="sourcePoint" />
            <mxPoint x="520" y="2080" as="targetPoint" />
          </mxGeometry>
        </mxCell>
        <mxCell id="rGoTi4UWK54ArvR2Migu-264" value="$$I_B$$" style="text;html=1;align=center;verticalAlign=middle;whiteSpace=wrap;rounded=0;fontSize=16;" parent="1" vertex="1">
          <mxGeometry x="234" y="1790" width="60" height="30" as="geometry" />
        </mxCell>
        <mxCell id="rGoTi4UWK54ArvR2Migu-265" value="$$V_{BE}$$" style="text;html=1;align=center;verticalAlign=middle;whiteSpace=wrap;rounded=0;fontSize=16;" parent="1" vertex="1">
          <mxGeometry x="520" y="2070" width="60" height="30" as="geometry" />
        </mxCell>
        <mxCell id="rGoTi4UWK54ArvR2Migu-266" value="" style="endArrow=classic;html=1;rounded=0;strokeWidth=2;endSize=10;" parent="1" edge="1">
          <mxGeometry width="50" height="50" relative="1" as="geometry">
            <mxPoint x="640" y="2080" as="sourcePoint" />
            <mxPoint x="640" y="1800" as="targetPoint" />
          </mxGeometry>
        </mxCell>
        <mxCell id="rGoTi4UWK54ArvR2Migu-267" value="" style="endArrow=classic;html=1;rounded=0;strokeWidth=2;endSize=10;" parent="1" edge="1">
          <mxGeometry width="50" height="50" relative="1" as="geometry">
            <mxPoint x="640" y="2080" as="sourcePoint" />
            <mxPoint x="920" y="2080" as="targetPoint" />
          </mxGeometry>
        </mxCell>
        <mxCell id="rGoTi4UWK54ArvR2Migu-268" value="$$I_C$$" style="text;html=1;align=center;verticalAlign=middle;whiteSpace=wrap;rounded=0;fontSize=16;" parent="1" vertex="1">
          <mxGeometry x="634" y="1790" width="60" height="30" as="geometry" />
        </mxCell>
        <mxCell id="rGoTi4UWK54ArvR2Migu-269" value="$$V_{CE}$$" style="text;html=1;align=center;verticalAlign=middle;whiteSpace=wrap;rounded=0;fontSize=16;" parent="1" vertex="1">
          <mxGeometry x="920" y="2070" width="60" height="30" as="geometry" />
        </mxCell>
        <mxCell id="rGoTi4UWK54ArvR2Migu-270" value="" style="curved=1;endArrow=none;html=1;rounded=0;endFill=0;strokeWidth=2;" parent="1" edge="1">
          <mxGeometry width="50" height="50" relative="1" as="geometry">
            <mxPoint x="279" y="2080" as="sourcePoint" />
            <mxPoint x="399" y="1880" as="targetPoint" />
            <Array as="points">
              <mxPoint x="359" y="2080" />
            </Array>
          </mxGeometry>
        </mxCell>
        <mxCell id="rGoTi4UWK54ArvR2Migu-271" value="" style="curved=1;endArrow=none;html=1;rounded=0;endFill=0;strokeWidth=2;" parent="1" edge="1">
          <mxGeometry width="50" height="50" relative="1" as="geometry">
            <mxPoint x="280" y="2080" as="sourcePoint" />
            <mxPoint x="460" y="1880" as="targetPoint" />
            <Array as="points">
              <mxPoint x="420" y="2080" />
            </Array>
          </mxGeometry>
        </mxCell>
        <mxCell id="rGoTi4UWK54ArvR2Migu-274" value="" style="curved=1;endArrow=none;html=1;rounded=0;endFill=0;strokeWidth=2;" parent="1" edge="1">
          <mxGeometry width="50" height="50" relative="1" as="geometry">
            <mxPoint x="640" y="2080" as="sourcePoint" />
            <mxPoint x="700" y="2040" as="targetPoint" />
            <Array as="points">
              <mxPoint x="680" y="2040" />
            </Array>
          </mxGeometry>
        </mxCell>
        <mxCell id="rGoTi4UWK54ArvR2Migu-275" value="" style="curved=1;endArrow=none;html=1;rounded=0;endFill=0;strokeWidth=2;" parent="1" edge="1">
          <mxGeometry width="50" height="50" relative="1" as="geometry">
            <mxPoint x="640" y="2080" as="sourcePoint" />
            <mxPoint x="720" y="2000" as="targetPoint" />
            <Array as="points">
              <mxPoint x="680" y="2000" />
            </Array>
          </mxGeometry>
        </mxCell>
        <mxCell id="rGoTi4UWK54ArvR2Migu-276" value="" style="curved=1;endArrow=none;html=1;rounded=0;endFill=0;strokeWidth=2;" parent="1" edge="1">
          <mxGeometry width="50" height="50" relative="1" as="geometry">
            <mxPoint x="640" y="2080" as="sourcePoint" />
            <mxPoint x="720" y="1960" as="targetPoint" />
            <Array as="points">
              <mxPoint x="680" y="1960" />
            </Array>
          </mxGeometry>
        </mxCell>
        <mxCell id="rGoTi4UWK54ArvR2Migu-277" value="" style="endArrow=none;html=1;rounded=0;strokeWidth=2;" parent="1" edge="1">
          <mxGeometry width="50" height="50" relative="1" as="geometry">
            <mxPoint x="720" y="1960" as="sourcePoint" />
            <mxPoint x="880" y="1960" as="targetPoint" />
          </mxGeometry>
        </mxCell>
        <mxCell id="rGoTi4UWK54ArvR2Migu-278" value="" style="endArrow=none;html=1;rounded=0;strokeWidth=2;" parent="1" edge="1">
          <mxGeometry width="50" height="50" relative="1" as="geometry">
            <mxPoint x="720" y="2000" as="sourcePoint" />
            <mxPoint x="890" y="2000" as="targetPoint" />
          </mxGeometry>
        </mxCell>
        <mxCell id="rGoTi4UWK54ArvR2Migu-279" value="" style="endArrow=none;html=1;rounded=0;strokeWidth=2;" parent="1" edge="1">
          <mxGeometry width="50" height="50" relative="1" as="geometry">
            <mxPoint x="700" y="2040" as="sourcePoint" />
            <mxPoint x="870" y="2040" as="targetPoint" />
          </mxGeometry>
        </mxCell>
        <mxCell id="Tgjqz4-vq3_mEY2gtLL2-24" style="edgeStyle=orthogonalEdgeStyle;rounded=0;orthogonalLoop=1;jettySize=auto;html=1;exitX=1;exitY=0.5;exitDx=0;exitDy=0;exitPerimeter=0;entryX=1;entryY=0.5;entryDx=0;entryDy=0;strokeWidth=2;endArrow=none;endFill=0;" parent="1" source="Tgjqz4-vq3_mEY2gtLL2-1" target="Tgjqz4-vq3_mEY2gtLL2-22" edge="1">
          <mxGeometry relative="1" as="geometry" />
        </mxCell>
        <mxCell id="Tgjqz4-vq3_mEY2gtLL2-30" style="edgeStyle=orthogonalEdgeStyle;rounded=0;orthogonalLoop=1;jettySize=auto;html=1;exitX=1;exitY=0.5;exitDx=0;exitDy=0;exitPerimeter=0;entryX=0;entryY=0.5;entryDx=0;entryDy=0;strokeWidth=2;endArrow=none;endFill=0;" parent="1" source="Tgjqz4-vq3_mEY2gtLL2-1" target="Tgjqz4-vq3_mEY2gtLL2-25" edge="1">
          <mxGeometry relative="1" as="geometry" />
        </mxCell>
        <mxCell id="Tgjqz4-vq3_mEY2gtLL2-1" value="" style="pointerEvents=1;verticalLabelPosition=bottom;shadow=0;dashed=0;align=center;html=1;verticalAlign=top;shape=mxgraph.electrical.capacitors.capacitor_1;strokeWidth=2;rotation=90;" parent="1" vertex="1">
          <mxGeometry x="1390" y="1980" width="100" height="30" as="geometry" />
        </mxCell>
        <mxCell id="Tgjqz4-vq3_mEY2gtLL2-20" style="edgeStyle=orthogonalEdgeStyle;rounded=0;orthogonalLoop=1;jettySize=auto;html=1;exitX=0;exitY=0.5;exitDx=0;exitDy=0;exitPerimeter=0;entryX=1;entryY=0.5;entryDx=0;entryDy=0;strokeWidth=2;endArrow=none;endFill=0;" parent="1" source="Tgjqz4-vq3_mEY2gtLL2-2" target="Tgjqz4-vq3_mEY2gtLL2-18" edge="1">
          <mxGeometry relative="1" as="geometry" />
        </mxCell>
        <mxCell id="Tgjqz4-vq3_mEY2gtLL2-2" value="" style="pointerEvents=1;verticalLabelPosition=bottom;shadow=0;dashed=0;align=center;html=1;verticalAlign=top;shape=mxgraph.electrical.resistors.resistor_2;rotation=0;strokeWidth=2;" parent="1" vertex="1">
          <mxGeometry x="1230" y="1905" width="100" height="20" as="geometry" />
        </mxCell>
        <mxCell id="Tgjqz4-vq3_mEY2gtLL2-23" style="edgeStyle=orthogonalEdgeStyle;rounded=0;orthogonalLoop=1;jettySize=auto;html=1;exitX=0;exitY=0.5;exitDx=0;exitDy=0;exitPerimeter=0;entryX=1;entryY=0.5;entryDx=0;entryDy=0;strokeWidth=2;endArrow=none;endFill=0;" parent="1" source="Tgjqz4-vq3_mEY2gtLL2-3" target="Tgjqz4-vq3_mEY2gtLL2-22" edge="1">
          <mxGeometry relative="1" as="geometry" />
        </mxCell>
        <mxCell id="Tgjqz4-vq3_mEY2gtLL2-3" value="" style="pointerEvents=1;verticalLabelPosition=bottom;shadow=0;dashed=0;align=center;html=1;verticalAlign=top;shape=mxgraph.electrical.resistors.resistor_2;rotation=-90;strokeWidth=2;" parent="1" vertex="1">
          <mxGeometry x="1310" y="1985" width="100" height="20" as="geometry" />
        </mxCell>
        <mxCell id="Tgjqz4-vq3_mEY2gtLL2-4" value="" style="pointerEvents=1;verticalLabelPosition=bottom;shadow=0;dashed=0;align=center;html=1;verticalAlign=top;shape=mxgraph.electrical.resistors.resistor_2;rotation=0;strokeWidth=2;" parent="1" vertex="1">
          <mxGeometry x="1470" y="1845" width="100" height="20" as="geometry" />
        </mxCell>
        <mxCell id="Tgjqz4-vq3_mEY2gtLL2-5" value="" style="pointerEvents=1;verticalLabelPosition=bottom;shadow=0;dashed=0;align=center;html=1;verticalAlign=top;shape=mxgraph.electrical.capacitors.capacitor_1;strokeWidth=2;rotation=0;" parent="1" vertex="1">
          <mxGeometry x="1470" y="1900" width="100" height="30" as="geometry" />
        </mxCell>
        <mxCell id="Tgjqz4-vq3_mEY2gtLL2-28" style="edgeStyle=orthogonalEdgeStyle;rounded=0;orthogonalLoop=1;jettySize=auto;html=1;exitX=0;exitY=0.5;exitDx=0;exitDy=0;exitPerimeter=0;entryX=0;entryY=0.5;entryDx=0;entryDy=0;strokeWidth=2;endArrow=none;endFill=0;" parent="1" source="Tgjqz4-vq3_mEY2gtLL2-6" target="Tgjqz4-vq3_mEY2gtLL2-25" edge="1">
          <mxGeometry relative="1" as="geometry" />
        </mxCell>
        <mxCell id="Tgjqz4-vq3_mEY2gtLL2-6" value="" style="pointerEvents=1;verticalLabelPosition=bottom;shadow=0;dashed=0;align=center;html=1;verticalAlign=top;shape=mxgraph.electrical.resistors.resistor_2;rotation=-90;strokeWidth=2;" parent="1" vertex="1">
          <mxGeometry x="1630" y="1985" width="100" height="20" as="geometry" />
        </mxCell>
        <mxCell id="Tgjqz4-vq3_mEY2gtLL2-29" style="edgeStyle=orthogonalEdgeStyle;rounded=0;orthogonalLoop=1;jettySize=auto;html=1;exitX=0.5;exitY=1;exitDx=0;exitDy=0;exitPerimeter=0;entryX=0;entryY=0.5;entryDx=0;entryDy=0;strokeWidth=2;endArrow=none;endFill=0;" parent="1" source="Tgjqz4-vq3_mEY2gtLL2-8" target="Tgjqz4-vq3_mEY2gtLL2-25" edge="1">
          <mxGeometry relative="1" as="geometry" />
        </mxCell>
        <mxCell id="Tgjqz4-vq3_mEY2gtLL2-8" value="" style="pointerEvents=1;verticalLabelPosition=bottom;shadow=0;dashed=0;align=center;html=1;verticalAlign=top;shape=mxgraph.electrical.signal_sources.source;aspect=fixed;points=[[0.5,0,0],[1,0.5,0],[0.5,1,0],[0,0.5,0]];elSignalType=dc2;elSourceType=dependent;strokeWidth=2;" parent="1" vertex="1">
          <mxGeometry x="1570" y="1965" width="60" height="60" as="geometry" />
        </mxCell>
        <mxCell id="Tgjqz4-vq3_mEY2gtLL2-9" style="edgeStyle=orthogonalEdgeStyle;rounded=0;orthogonalLoop=1;jettySize=auto;html=1;exitX=1;exitY=0.5;exitDx=0;exitDy=0;exitPerimeter=0;entryX=1;entryY=0.5;entryDx=0;entryDy=0;entryPerimeter=0;strokeWidth=2;endArrow=none;endFill=0;" parent="1" source="Tgjqz4-vq3_mEY2gtLL2-2" target="Tgjqz4-vq3_mEY2gtLL2-3" edge="1">
          <mxGeometry relative="1" as="geometry" />
        </mxCell>
        <mxCell id="Tgjqz4-vq3_mEY2gtLL2-10" style="edgeStyle=orthogonalEdgeStyle;rounded=0;orthogonalLoop=1;jettySize=auto;html=1;exitX=1;exitY=0.5;exitDx=0;exitDy=0;exitPerimeter=0;entryX=0;entryY=0.5;entryDx=0;entryDy=0;entryPerimeter=0;strokeWidth=2;endArrow=none;endFill=0;" parent="1" source="Tgjqz4-vq3_mEY2gtLL2-2" target="Tgjqz4-vq3_mEY2gtLL2-1" edge="1">
          <mxGeometry relative="1" as="geometry" />
        </mxCell>
        <mxCell id="Tgjqz4-vq3_mEY2gtLL2-13" style="edgeStyle=orthogonalEdgeStyle;rounded=0;orthogonalLoop=1;jettySize=auto;html=1;exitX=0;exitY=0.5;exitDx=0;exitDy=0;exitPerimeter=0;entryX=0;entryY=0.5;entryDx=0;entryDy=0;entryPerimeter=0;strokeWidth=2;endArrow=none;endFill=0;" parent="1" source="Tgjqz4-vq3_mEY2gtLL2-5" target="Tgjqz4-vq3_mEY2gtLL2-1" edge="1">
          <mxGeometry relative="1" as="geometry" />
        </mxCell>
        <mxCell id="Tgjqz4-vq3_mEY2gtLL2-14" style="edgeStyle=orthogonalEdgeStyle;rounded=0;orthogonalLoop=1;jettySize=auto;html=1;exitX=0;exitY=0.5;exitDx=0;exitDy=0;exitPerimeter=0;entryX=0;entryY=0.5;entryDx=0;entryDy=0;entryPerimeter=0;endArrow=none;endFill=0;strokeWidth=2;" parent="1" source="Tgjqz4-vq3_mEY2gtLL2-4" target="Tgjqz4-vq3_mEY2gtLL2-1" edge="1">
          <mxGeometry relative="1" as="geometry" />
        </mxCell>
        <mxCell id="Tgjqz4-vq3_mEY2gtLL2-16" style="edgeStyle=orthogonalEdgeStyle;rounded=0;orthogonalLoop=1;jettySize=auto;html=1;exitX=1;exitY=0.5;exitDx=0;exitDy=0;exitPerimeter=0;entryX=0.5;entryY=0;entryDx=0;entryDy=0;entryPerimeter=0;strokeWidth=2;endArrow=none;endFill=0;" parent="1" source="Tgjqz4-vq3_mEY2gtLL2-5" target="Tgjqz4-vq3_mEY2gtLL2-8" edge="1">
          <mxGeometry relative="1" as="geometry" />
        </mxCell>
        <mxCell id="Tgjqz4-vq3_mEY2gtLL2-17" style="edgeStyle=orthogonalEdgeStyle;rounded=0;orthogonalLoop=1;jettySize=auto;html=1;exitX=1;exitY=0.5;exitDx=0;exitDy=0;exitPerimeter=0;entryX=1;entryY=0.5;entryDx=0;entryDy=0;entryPerimeter=0;strokeWidth=2;endArrow=none;endFill=0;" parent="1" source="Tgjqz4-vq3_mEY2gtLL2-5" target="Tgjqz4-vq3_mEY2gtLL2-6" edge="1">
          <mxGeometry relative="1" as="geometry" />
        </mxCell>
        <mxCell id="Tgjqz4-vq3_mEY2gtLL2-18" value="" style="ellipse;whiteSpace=wrap;html=1;aspect=fixed;strokeWidth=2;" parent="1" vertex="1">
          <mxGeometry x="1207" y="1911" width="8" height="8" as="geometry" />
        </mxCell>
        <mxCell id="Tgjqz4-vq3_mEY2gtLL2-21" style="edgeStyle=orthogonalEdgeStyle;rounded=0;orthogonalLoop=1;jettySize=auto;html=1;exitX=1;exitY=0.5;exitDx=0;exitDy=0;exitPerimeter=0;strokeWidth=2;endArrow=none;endFill=0;entryX=0.5;entryY=0;entryDx=0;entryDy=0;entryPerimeter=0;" parent="1" source="Tgjqz4-vq3_mEY2gtLL2-4" target="Tgjqz4-vq3_mEY2gtLL2-8" edge="1">
          <mxGeometry relative="1" as="geometry">
            <mxPoint x="1630" y="1935" as="targetPoint" />
          </mxGeometry>
        </mxCell>
        <mxCell id="Tgjqz4-vq3_mEY2gtLL2-22" value="" style="ellipse;whiteSpace=wrap;html=1;aspect=fixed;strokeWidth=2;" parent="1" vertex="1">
          <mxGeometry x="1207" y="2071" width="8" height="8" as="geometry" />
        </mxCell>
        <mxCell id="Tgjqz4-vq3_mEY2gtLL2-25" value="" style="ellipse;whiteSpace=wrap;html=1;aspect=fixed;strokeWidth=2;" parent="1" vertex="1">
          <mxGeometry x="1785" y="2071" width="8" height="8" as="geometry" />
        </mxCell>
        <mxCell id="Tgjqz4-vq3_mEY2gtLL2-26" value="" style="ellipse;whiteSpace=wrap;html=1;aspect=fixed;strokeWidth=2;" parent="1" vertex="1">
          <mxGeometry x="1785" y="1911" width="8" height="8" as="geometry" />
        </mxCell>
        <mxCell id="Tgjqz4-vq3_mEY2gtLL2-27" style="edgeStyle=orthogonalEdgeStyle;rounded=0;orthogonalLoop=1;jettySize=auto;html=1;exitX=0;exitY=0.5;exitDx=0;exitDy=0;entryX=1;entryY=0.5;entryDx=0;entryDy=0;entryPerimeter=0;strokeWidth=2;endArrow=none;endFill=0;" parent="1" source="Tgjqz4-vq3_mEY2gtLL2-26" target="Tgjqz4-vq3_mEY2gtLL2-6" edge="1">
          <mxGeometry relative="1" as="geometry" />
        </mxCell>
        <mxCell id="Tgjqz4-vq3_mEY2gtLL2-31" value="$$r_{bb}$$" style="text;html=1;align=center;verticalAlign=middle;whiteSpace=wrap;rounded=0;fontSize=16;" parent="1" vertex="1">
          <mxGeometry x="1250" y="1870" width="60" height="30" as="geometry" />
        </mxCell>
        <mxCell id="Tgjqz4-vq3_mEY2gtLL2-32" value="$$r_{b&#39;e}$$" style="text;html=1;align=center;verticalAlign=middle;whiteSpace=wrap;rounded=0;fontSize=16;" parent="1" vertex="1">
          <mxGeometry x="1290" y="1977" width="70" height="30" as="geometry" />
        </mxCell>
        <mxCell id="Tgjqz4-vq3_mEY2gtLL2-33" value="$$C_e$$" style="text;html=1;align=center;verticalAlign=middle;whiteSpace=wrap;rounded=0;fontSize=16;" parent="1" vertex="1">
          <mxGeometry x="1370" y="1980" width="70" height="30" as="geometry" />
        </mxCell>
        <mxCell id="Tgjqz4-vq3_mEY2gtLL2-34" value="$$b$$" style="text;html=1;align=center;verticalAlign=middle;whiteSpace=wrap;rounded=0;fontSize=18;" parent="1" vertex="1">
          <mxGeometry x="1185" y="1881" width="30" height="30" as="geometry" />
        </mxCell>
        <mxCell id="Tgjqz4-vq3_mEY2gtLL2-35" value="$$c$$" style="text;html=1;align=center;verticalAlign=middle;whiteSpace=wrap;rounded=0;fontSize=18;" parent="1" vertex="1">
          <mxGeometry x="1785" y="1881" width="20" height="30" as="geometry" />
        </mxCell>
        <mxCell id="Tgjqz4-vq3_mEY2gtLL2-36" value="$$e$$" style="text;html=1;align=center;verticalAlign=middle;whiteSpace=wrap;rounded=0;fontSize=18;" parent="1" vertex="1">
          <mxGeometry x="1190" y="2041" width="20" height="30" as="geometry" />
        </mxCell>
        <mxCell id="Tgjqz4-vq3_mEY2gtLL2-37" value="$$e$$" style="text;html=1;align=center;verticalAlign=middle;whiteSpace=wrap;rounded=0;fontSize=18;" parent="1" vertex="1">
          <mxGeometry x="1785" y="2041" width="25" height="30" as="geometry" />
        </mxCell>
        <mxCell id="Tgjqz4-vq3_mEY2gtLL2-38" value="$$r_{b&#39;c}$$" style="text;html=1;align=center;verticalAlign=middle;whiteSpace=wrap;rounded=0;fontSize=16;" parent="1" vertex="1">
          <mxGeometry x="1485" y="1810" width="70" height="30" as="geometry" />
        </mxCell>
        <mxCell id="Tgjqz4-vq3_mEY2gtLL2-40" value="$$(r_{\pi})$$" style="text;html=1;align=center;verticalAlign=middle;whiteSpace=wrap;rounded=0;fontSize=16;" parent="1" vertex="1">
          <mxGeometry x="1290" y="2004" width="70" height="30" as="geometry" />
        </mxCell>
        <mxCell id="Tgjqz4-vq3_mEY2gtLL2-41" value="$$(C_{\pi})$$" style="text;html=1;align=center;verticalAlign=middle;whiteSpace=wrap;rounded=0;fontSize=16;" parent="1" vertex="1">
          <mxGeometry x="1370" y="2004" width="70" height="30" as="geometry" />
        </mxCell>
        <mxCell id="Tgjqz4-vq3_mEY2gtLL2-43" value="$$(r_{\mu})$$" style="text;html=1;align=center;verticalAlign=middle;whiteSpace=wrap;rounded=0;fontSize=16;" parent="1" vertex="1">
          <mxGeometry x="1520" y="1810" width="70" height="30" as="geometry" />
        </mxCell>
        <mxCell id="Tgjqz4-vq3_mEY2gtLL2-44" value="$$C_{b&#39;c}$$" style="text;html=1;align=center;verticalAlign=middle;whiteSpace=wrap;rounded=0;fontSize=16;" parent="1" vertex="1">
          <mxGeometry x="1485" y="1930" width="70" height="30" as="geometry" />
        </mxCell>
        <mxCell id="Tgjqz4-vq3_mEY2gtLL2-45" value="$$(C_{\mu})$$" style="text;html=1;align=center;verticalAlign=middle;whiteSpace=wrap;rounded=0;fontSize=16;" parent="1" vertex="1">
          <mxGeometry x="1521" y="1930" width="70" height="30" as="geometry" />
        </mxCell>
        <mxCell id="Tgjqz4-vq3_mEY2gtLL2-46" value="+" style="text;html=1;align=center;verticalAlign=middle;whiteSpace=wrap;rounded=0;fontSize=18;" parent="1" vertex="1">
          <mxGeometry x="1470" y="1949" width="10" height="11" as="geometry" />
        </mxCell>
        <mxCell id="Tgjqz4-vq3_mEY2gtLL2-47" value="-" style="text;html=1;align=center;verticalAlign=middle;whiteSpace=wrap;rounded=0;fontSize=18;" parent="1" vertex="1">
          <mxGeometry x="1470" y="2025" width="10" height="11" as="geometry" />
        </mxCell>
        <mxCell id="Tgjqz4-vq3_mEY2gtLL2-48" value="$$v_{b&#39;e}$$" style="text;html=1;align=center;verticalAlign=middle;whiteSpace=wrap;rounded=0;fontSize=16;" parent="1" vertex="1">
          <mxGeometry x="1462" y="1977" width="26" height="30" as="geometry" />
        </mxCell>
        <mxCell id="Tgjqz4-vq3_mEY2gtLL2-50" value="$$g_mv_{b&#39;e}$$" style="text;html=1;align=center;verticalAlign=middle;whiteSpace=wrap;rounded=0;fontSize=16;" parent="1" vertex="1">
          <mxGeometry x="1550" y="2010" width="26" height="30" as="geometry" />
        </mxCell>
        <mxCell id="Tgjqz4-vq3_mEY2gtLL2-51" value="$$r_{ce}$$" style="text;html=1;align=center;verticalAlign=middle;whiteSpace=wrap;rounded=0;fontSize=16;" parent="1" vertex="1">
          <mxGeometry x="1700" y="1980" width="30" height="30" as="geometry" />
        </mxCell>
        <mxCell id="Tgjqz4-vq3_mEY2gtLL2-52" value="$$(r_{o})$$" style="text;html=1;align=center;verticalAlign=middle;whiteSpace=wrap;rounded=0;fontSize=16;" parent="1" vertex="1">
          <mxGeometry x="1700" y="2005" width="30" height="30" as="geometry" />
        </mxCell>
        <mxCell id="Tgjqz4-vq3_mEY2gtLL2-54" style="edgeStyle=orthogonalEdgeStyle;rounded=0;orthogonalLoop=1;jettySize=auto;html=1;exitX=1;exitY=0.5;exitDx=0;exitDy=0;entryX=0;entryY=0.5;entryDx=0;entryDy=0;strokeWidth=2;endArrow=none;endFill=0;" parent="1" source="Tgjqz4-vq3_mEY2gtLL2-74" target="Tgjqz4-vq3_mEY2gtLL2-75" edge="1">
          <mxGeometry relative="1" as="geometry">
            <mxPoint x="2079" y="2045" as="sourcePoint" />
          </mxGeometry>
        </mxCell>
        <mxCell id="Tgjqz4-vq3_mEY2gtLL2-58" style="edgeStyle=orthogonalEdgeStyle;rounded=0;orthogonalLoop=1;jettySize=auto;html=1;exitX=0;exitY=0.5;exitDx=0;exitDy=0;exitPerimeter=0;entryX=1;entryY=0.5;entryDx=0;entryDy=0;strokeWidth=2;endArrow=none;endFill=0;" parent="1" source="Tgjqz4-vq3_mEY2gtLL2-59" target="Tgjqz4-vq3_mEY2gtLL2-74" edge="1">
          <mxGeometry relative="1" as="geometry" />
        </mxCell>
        <mxCell id="Tgjqz4-vq3_mEY2gtLL2-59" value="" style="pointerEvents=1;verticalLabelPosition=bottom;shadow=0;dashed=0;align=center;html=1;verticalAlign=top;shape=mxgraph.electrical.resistors.resistor_2;rotation=-90;strokeWidth=2;" parent="1" vertex="1">
          <mxGeometry x="1949" y="1985" width="100" height="20" as="geometry" />
        </mxCell>
        <mxCell id="Tgjqz4-vq3_mEY2gtLL2-62" style="edgeStyle=orthogonalEdgeStyle;rounded=0;orthogonalLoop=1;jettySize=auto;html=1;exitX=0;exitY=0.5;exitDx=0;exitDy=0;exitPerimeter=0;entryX=0;entryY=0.5;entryDx=0;entryDy=0;strokeWidth=2;endArrow=none;endFill=0;" parent="1" source="Tgjqz4-vq3_mEY2gtLL2-63" target="Tgjqz4-vq3_mEY2gtLL2-75" edge="1">
          <mxGeometry relative="1" as="geometry" />
        </mxCell>
        <mxCell id="Tgjqz4-vq3_mEY2gtLL2-63" value="" style="pointerEvents=1;verticalLabelPosition=bottom;shadow=0;dashed=0;align=center;html=1;verticalAlign=top;shape=mxgraph.electrical.resistors.resistor_2;rotation=-90;strokeWidth=2;" parent="1" vertex="1">
          <mxGeometry x="2159" y="1985" width="100" height="20" as="geometry" />
        </mxCell>
        <mxCell id="Tgjqz4-vq3_mEY2gtLL2-64" style="edgeStyle=orthogonalEdgeStyle;rounded=0;orthogonalLoop=1;jettySize=auto;html=1;exitX=0.5;exitY=1;exitDx=0;exitDy=0;exitPerimeter=0;entryX=0;entryY=0.5;entryDx=0;entryDy=0;strokeWidth=2;endArrow=none;endFill=0;" parent="1" source="Tgjqz4-vq3_mEY2gtLL2-65" target="Tgjqz4-vq3_mEY2gtLL2-75" edge="1">
          <mxGeometry relative="1" as="geometry" />
        </mxCell>
        <mxCell id="Tgjqz4-vq3_mEY2gtLL2-65" value="" style="pointerEvents=1;verticalLabelPosition=bottom;shadow=0;dashed=0;align=center;html=1;verticalAlign=top;shape=mxgraph.electrical.signal_sources.source;aspect=fixed;points=[[0.5,0,0],[1,0.5,0],[0.5,1,0],[0,0.5,0]];elSignalType=dc2;elSourceType=dependent;strokeWidth=2;" parent="1" vertex="1">
          <mxGeometry x="2099" y="1965" width="60" height="60" as="geometry" />
        </mxCell>
        <mxCell id="Tgjqz4-vq3_mEY2gtLL2-66" style="edgeStyle=orthogonalEdgeStyle;rounded=0;orthogonalLoop=1;jettySize=auto;html=1;exitX=1;exitY=0.5;exitDx=0;exitDy=0;entryX=1;entryY=0.5;entryDx=0;entryDy=0;entryPerimeter=0;strokeWidth=2;endArrow=none;endFill=0;" parent="1" source="Tgjqz4-vq3_mEY2gtLL2-72" target="Tgjqz4-vq3_mEY2gtLL2-59" edge="1">
          <mxGeometry relative="1" as="geometry">
            <mxPoint x="1969" y="1915" as="sourcePoint" />
          </mxGeometry>
        </mxCell>
        <mxCell id="Tgjqz4-vq3_mEY2gtLL2-70" style="edgeStyle=orthogonalEdgeStyle;rounded=0;orthogonalLoop=1;jettySize=auto;html=1;entryX=0.5;entryY=0;entryDx=0;entryDy=0;entryPerimeter=0;strokeWidth=2;endArrow=none;endFill=0;exitX=0;exitY=0.5;exitDx=0;exitDy=0;" parent="1" source="Tgjqz4-vq3_mEY2gtLL2-76" target="Tgjqz4-vq3_mEY2gtLL2-65" edge="1">
          <mxGeometry relative="1" as="geometry">
            <mxPoint x="2208" y="1915" as="sourcePoint" />
            <Array as="points">
              <mxPoint x="2129" y="1915" />
            </Array>
          </mxGeometry>
        </mxCell>
        <mxCell id="Tgjqz4-vq3_mEY2gtLL2-72" value="" style="ellipse;whiteSpace=wrap;html=1;aspect=fixed;strokeWidth=2;" parent="1" vertex="1">
          <mxGeometry x="1903" y="1911" width="8" height="8" as="geometry" />
        </mxCell>
        <mxCell id="Tgjqz4-vq3_mEY2gtLL2-74" value="" style="ellipse;whiteSpace=wrap;html=1;aspect=fixed;strokeWidth=2;" parent="1" vertex="1">
          <mxGeometry x="1903" y="2071" width="8" height="8" as="geometry" />
        </mxCell>
        <mxCell id="Tgjqz4-vq3_mEY2gtLL2-75" value="" style="ellipse;whiteSpace=wrap;html=1;aspect=fixed;strokeWidth=2;" parent="1" vertex="1">
          <mxGeometry x="2314" y="2071" width="8" height="8" as="geometry" />
        </mxCell>
        <mxCell id="Tgjqz4-vq3_mEY2gtLL2-76" value="" style="ellipse;whiteSpace=wrap;html=1;aspect=fixed;strokeWidth=2;" parent="1" vertex="1">
          <mxGeometry x="2314" y="1911" width="8" height="8" as="geometry" />
        </mxCell>
        <mxCell id="Tgjqz4-vq3_mEY2gtLL2-77" style="edgeStyle=orthogonalEdgeStyle;rounded=0;orthogonalLoop=1;jettySize=auto;html=1;exitX=0;exitY=0.5;exitDx=0;exitDy=0;entryX=1;entryY=0.5;entryDx=0;entryDy=0;entryPerimeter=0;strokeWidth=2;endArrow=none;endFill=0;" parent="1" source="Tgjqz4-vq3_mEY2gtLL2-76" target="Tgjqz4-vq3_mEY2gtLL2-63" edge="1">
          <mxGeometry relative="1" as="geometry" />
        </mxCell>
        <mxCell id="Tgjqz4-vq3_mEY2gtLL2-79" value="$$r_{b&#39;e}$$" style="text;html=1;align=center;verticalAlign=middle;whiteSpace=wrap;rounded=0;fontSize=16;" parent="1" vertex="1">
          <mxGeometry x="1929" y="1977" width="70" height="30" as="geometry" />
        </mxCell>
        <mxCell id="Tgjqz4-vq3_mEY2gtLL2-81" value="$$b$$" style="text;html=1;align=center;verticalAlign=middle;whiteSpace=wrap;rounded=0;fontSize=18;" parent="1" vertex="1">
          <mxGeometry x="1866" y="1881" width="60" height="30" as="geometry" />
        </mxCell>
        <mxCell id="Tgjqz4-vq3_mEY2gtLL2-82" value="$$c$$" style="text;html=1;align=center;verticalAlign=middle;whiteSpace=wrap;rounded=0;fontSize=18;" parent="1" vertex="1">
          <mxGeometry x="2299" y="1881" width="60" height="30" as="geometry" />
        </mxCell>
        <mxCell id="Tgjqz4-vq3_mEY2gtLL2-83" value="$$e$$" style="text;html=1;align=center;verticalAlign=middle;whiteSpace=wrap;rounded=0;fontSize=18;" parent="1" vertex="1">
          <mxGeometry x="1866" y="2041" width="60" height="30" as="geometry" />
        </mxCell>
        <mxCell id="Tgjqz4-vq3_mEY2gtLL2-84" value="$$e$$" style="text;html=1;align=center;verticalAlign=middle;whiteSpace=wrap;rounded=0;fontSize=18;" parent="1" vertex="1">
          <mxGeometry x="2314" y="2041" width="27" height="30" as="geometry" />
        </mxCell>
        <mxCell id="Tgjqz4-vq3_mEY2gtLL2-86" value="$$(r_{\pi})$$" style="text;html=1;align=center;verticalAlign=middle;whiteSpace=wrap;rounded=0;fontSize=16;" parent="1" vertex="1">
          <mxGeometry x="1929" y="2004" width="70" height="30" as="geometry" />
        </mxCell>
        <mxCell id="Tgjqz4-vq3_mEY2gtLL2-91" value="+" style="text;html=1;align=center;verticalAlign=middle;whiteSpace=wrap;rounded=0;fontSize=18;" parent="1" vertex="1">
          <mxGeometry x="2034" y="1953" width="10" height="11" as="geometry" />
        </mxCell>
        <mxCell id="Tgjqz4-vq3_mEY2gtLL2-92" value="-" style="text;html=1;align=center;verticalAlign=middle;whiteSpace=wrap;rounded=0;fontSize=18;" parent="1" vertex="1">
          <mxGeometry x="2034" y="2029" width="10" height="11" as="geometry" />
        </mxCell>
        <mxCell id="Tgjqz4-vq3_mEY2gtLL2-93" value="$$v_{b&#39;e}$$" style="text;html=1;align=center;verticalAlign=middle;whiteSpace=wrap;rounded=0;fontSize=16;" parent="1" vertex="1">
          <mxGeometry x="2026" y="1981" width="26" height="30" as="geometry" />
        </mxCell>
        <mxCell id="Tgjqz4-vq3_mEY2gtLL2-94" value="$$g_mv_{b&#39;e}$$" style="text;html=1;align=center;verticalAlign=middle;whiteSpace=wrap;rounded=0;fontSize=16;" parent="1" vertex="1">
          <mxGeometry x="2079" y="2010" width="26" height="30" as="geometry" />
        </mxCell>
        <mxCell id="Tgjqz4-vq3_mEY2gtLL2-95" value="$$r_{ce}$$" style="text;html=1;align=center;verticalAlign=middle;whiteSpace=wrap;rounded=0;fontSize=16;" parent="1" vertex="1">
          <mxGeometry x="2229" y="1980" width="30" height="30" as="geometry" />
        </mxCell>
        <mxCell id="Tgjqz4-vq3_mEY2gtLL2-96" value="$$(r_{o})$$" style="text;html=1;align=center;verticalAlign=middle;whiteSpace=wrap;rounded=0;fontSize=16;" parent="1" vertex="1">
          <mxGeometry x="2229" y="2005" width="30" height="30" as="geometry" />
        </mxCell>
        <mxCell id="Tgjqz4-vq3_mEY2gtLL2-99" value="&lt;span style=&quot;font-size: 20px;&quot;&gt;Full Hybrid-pi&lt;/span&gt;" style="rounded=1;whiteSpace=wrap;html=1;strokeWidth=2;" parent="1" vertex="1">
          <mxGeometry x="1430" y="2110" width="170" height="45" as="geometry" />
        </mxCell>
        <mxCell id="Tgjqz4-vq3_mEY2gtLL2-100" value="&lt;span style=&quot;font-size: 20px;&quot;&gt;Low Frequency Hybrid-pi&lt;/span&gt;" style="rounded=1;whiteSpace=wrap;html=1;strokeWidth=2;" parent="1" vertex="1">
          <mxGeometry x="2254.5" y="2110" width="251" height="45" as="geometry" />
        </mxCell>
        <mxCell id="wwYdYQFsJHzgmpC55MZX-1" style="edgeStyle=orthogonalEdgeStyle;rounded=0;orthogonalLoop=1;jettySize=auto;html=1;exitX=1;exitY=0.5;exitDx=0;exitDy=0;entryX=0;entryY=0.5;entryDx=0;entryDy=0;strokeWidth=2;endArrow=none;endFill=0;" edge="1" parent="1" source="wwYdYQFsJHzgmpC55MZX-11" target="wwYdYQFsJHzgmpC55MZX-12">
          <mxGeometry relative="1" as="geometry">
            <mxPoint x="2601" y="2045" as="sourcePoint" />
          </mxGeometry>
        </mxCell>
        <mxCell id="wwYdYQFsJHzgmpC55MZX-2" style="edgeStyle=orthogonalEdgeStyle;rounded=0;orthogonalLoop=1;jettySize=auto;html=1;exitX=0;exitY=0.5;exitDx=0;exitDy=0;exitPerimeter=0;entryX=1;entryY=0.5;entryDx=0;entryDy=0;strokeWidth=2;endArrow=none;endFill=0;" edge="1" parent="1" source="wwYdYQFsJHzgmpC55MZX-3" target="wwYdYQFsJHzgmpC55MZX-11">
          <mxGeometry relative="1" as="geometry" />
        </mxCell>
        <mxCell id="wwYdYQFsJHzgmpC55MZX-3" value="" style="pointerEvents=1;verticalLabelPosition=bottom;shadow=0;dashed=0;align=center;html=1;verticalAlign=top;shape=mxgraph.electrical.resistors.resistor_2;rotation=-90;strokeWidth=2;" vertex="1" parent="1">
          <mxGeometry x="2471" y="1985" width="100" height="20" as="geometry" />
        </mxCell>
        <mxCell id="wwYdYQFsJHzgmpC55MZX-6" style="edgeStyle=orthogonalEdgeStyle;rounded=0;orthogonalLoop=1;jettySize=auto;html=1;exitX=0.5;exitY=1;exitDx=0;exitDy=0;exitPerimeter=0;entryX=0;entryY=0.5;entryDx=0;entryDy=0;strokeWidth=2;endArrow=none;endFill=0;" edge="1" parent="1" source="wwYdYQFsJHzgmpC55MZX-7" target="wwYdYQFsJHzgmpC55MZX-12">
          <mxGeometry relative="1" as="geometry" />
        </mxCell>
        <mxCell id="wwYdYQFsJHzgmpC55MZX-7" value="" style="pointerEvents=1;verticalLabelPosition=bottom;shadow=0;dashed=0;align=center;html=1;verticalAlign=top;shape=mxgraph.electrical.signal_sources.source;aspect=fixed;points=[[0.5,0,0],[1,0.5,0],[0.5,1,0],[0,0.5,0]];elSignalType=dc2;elSourceType=dependent;strokeWidth=2;" vertex="1" parent="1">
          <mxGeometry x="2621" y="1965" width="60" height="60" as="geometry" />
        </mxCell>
        <mxCell id="wwYdYQFsJHzgmpC55MZX-8" style="edgeStyle=orthogonalEdgeStyle;rounded=0;orthogonalLoop=1;jettySize=auto;html=1;exitX=1;exitY=0.5;exitDx=0;exitDy=0;entryX=1;entryY=0.5;entryDx=0;entryDy=0;entryPerimeter=0;strokeWidth=2;endArrow=none;endFill=0;" edge="1" parent="1" source="wwYdYQFsJHzgmpC55MZX-10" target="wwYdYQFsJHzgmpC55MZX-3">
          <mxGeometry relative="1" as="geometry">
            <mxPoint x="2491" y="1915" as="sourcePoint" />
          </mxGeometry>
        </mxCell>
        <mxCell id="wwYdYQFsJHzgmpC55MZX-9" style="edgeStyle=orthogonalEdgeStyle;rounded=0;orthogonalLoop=1;jettySize=auto;html=1;entryX=0.5;entryY=0;entryDx=0;entryDy=0;entryPerimeter=0;strokeWidth=2;endArrow=none;endFill=0;exitX=0;exitY=0.5;exitDx=0;exitDy=0;" edge="1" parent="1" source="wwYdYQFsJHzgmpC55MZX-13" target="wwYdYQFsJHzgmpC55MZX-7">
          <mxGeometry relative="1" as="geometry">
            <mxPoint x="2730" y="1915" as="sourcePoint" />
            <Array as="points">
              <mxPoint x="2651" y="1915" />
            </Array>
          </mxGeometry>
        </mxCell>
        <mxCell id="wwYdYQFsJHzgmpC55MZX-10" value="" style="ellipse;whiteSpace=wrap;html=1;aspect=fixed;strokeWidth=2;" vertex="1" parent="1">
          <mxGeometry x="2425" y="1911" width="8" height="8" as="geometry" />
        </mxCell>
        <mxCell id="wwYdYQFsJHzgmpC55MZX-11" value="" style="ellipse;whiteSpace=wrap;html=1;aspect=fixed;strokeWidth=2;" vertex="1" parent="1">
          <mxGeometry x="2425" y="2071" width="8" height="8" as="geometry" />
        </mxCell>
        <mxCell id="wwYdYQFsJHzgmpC55MZX-12" value="" style="ellipse;whiteSpace=wrap;html=1;aspect=fixed;strokeWidth=2;" vertex="1" parent="1">
          <mxGeometry x="2739" y="2071" width="8" height="8" as="geometry" />
        </mxCell>
        <mxCell id="wwYdYQFsJHzgmpC55MZX-13" value="" style="ellipse;whiteSpace=wrap;html=1;aspect=fixed;strokeWidth=2;" vertex="1" parent="1">
          <mxGeometry x="2739" y="1911" width="8" height="8" as="geometry" />
        </mxCell>
        <mxCell id="wwYdYQFsJHzgmpC55MZX-15" value="$$r_{b&#39;e}$$" style="text;html=1;align=center;verticalAlign=middle;whiteSpace=wrap;rounded=0;fontSize=16;" vertex="1" parent="1">
          <mxGeometry x="2451" y="1977" width="70" height="30" as="geometry" />
        </mxCell>
        <mxCell id="wwYdYQFsJHzgmpC55MZX-16" value="$$b$$" style="text;html=1;align=center;verticalAlign=middle;whiteSpace=wrap;rounded=0;fontSize=18;" vertex="1" parent="1">
          <mxGeometry x="2388" y="1881" width="60" height="30" as="geometry" />
        </mxCell>
        <mxCell id="wwYdYQFsJHzgmpC55MZX-17" value="$$c$$" style="text;html=1;align=center;verticalAlign=middle;whiteSpace=wrap;rounded=0;fontSize=18;" vertex="1" parent="1">
          <mxGeometry x="2724" y="1881" width="60" height="30" as="geometry" />
        </mxCell>
        <mxCell id="wwYdYQFsJHzgmpC55MZX-18" value="$$e$$" style="text;html=1;align=center;verticalAlign=middle;whiteSpace=wrap;rounded=0;fontSize=18;" vertex="1" parent="1">
          <mxGeometry x="2388" y="2041" width="60" height="30" as="geometry" />
        </mxCell>
        <mxCell id="wwYdYQFsJHzgmpC55MZX-19" value="$$e$$" style="text;html=1;align=center;verticalAlign=middle;whiteSpace=wrap;rounded=0;fontSize=18;" vertex="1" parent="1">
          <mxGeometry x="2739" y="2041" width="27" height="30" as="geometry" />
        </mxCell>
        <mxCell id="wwYdYQFsJHzgmpC55MZX-20" value="$$(r_{\pi})$$" style="text;html=1;align=center;verticalAlign=middle;whiteSpace=wrap;rounded=0;fontSize=16;" vertex="1" parent="1">
          <mxGeometry x="2451" y="2004" width="70" height="30" as="geometry" />
        </mxCell>
        <mxCell id="wwYdYQFsJHzgmpC55MZX-21" value="+" style="text;html=1;align=center;verticalAlign=middle;whiteSpace=wrap;rounded=0;fontSize=18;" vertex="1" parent="1">
          <mxGeometry x="2556" y="1953" width="10" height="11" as="geometry" />
        </mxCell>
        <mxCell id="wwYdYQFsJHzgmpC55MZX-22" value="-" style="text;html=1;align=center;verticalAlign=middle;whiteSpace=wrap;rounded=0;fontSize=18;" vertex="1" parent="1">
          <mxGeometry x="2556" y="2029" width="10" height="11" as="geometry" />
        </mxCell>
        <mxCell id="wwYdYQFsJHzgmpC55MZX-23" value="$$v_{b&#39;e}$$" style="text;html=1;align=center;verticalAlign=middle;whiteSpace=wrap;rounded=0;fontSize=16;" vertex="1" parent="1">
          <mxGeometry x="2548" y="1981" width="26" height="30" as="geometry" />
        </mxCell>
        <mxCell id="wwYdYQFsJHzgmpC55MZX-24" value="$$g_mv_{b&#39;e}$$" style="text;html=1;align=center;verticalAlign=middle;whiteSpace=wrap;rounded=0;fontSize=16;" vertex="1" parent="1">
          <mxGeometry x="2601" y="2010" width="26" height="30" as="geometry" />
        </mxCell>
        <mxCell id="wwYdYQFsJHzgmpC55MZX-27" style="edgeStyle=orthogonalEdgeStyle;rounded=0;orthogonalLoop=1;jettySize=auto;html=1;exitX=1;exitY=0.5;exitDx=0;exitDy=0;exitPerimeter=0;entryX=1;entryY=0.5;entryDx=0;entryDy=0;strokeWidth=2;endArrow=none;endFill=0;" edge="1" parent="1" source="wwYdYQFsJHzgmpC55MZX-29" target="wwYdYQFsJHzgmpC55MZX-48">
          <mxGeometry relative="1" as="geometry" />
        </mxCell>
        <mxCell id="wwYdYQFsJHzgmpC55MZX-28" style="edgeStyle=orthogonalEdgeStyle;rounded=0;orthogonalLoop=1;jettySize=auto;html=1;exitX=1;exitY=0.5;exitDx=0;exitDy=0;exitPerimeter=0;entryX=0;entryY=0.5;entryDx=0;entryDy=0;strokeWidth=2;endArrow=none;endFill=0;" edge="1" parent="1" source="wwYdYQFsJHzgmpC55MZX-29" target="wwYdYQFsJHzgmpC55MZX-49">
          <mxGeometry relative="1" as="geometry" />
        </mxCell>
        <mxCell id="wwYdYQFsJHzgmpC55MZX-29" value="" style="pointerEvents=1;verticalLabelPosition=bottom;shadow=0;dashed=0;align=center;html=1;verticalAlign=top;shape=mxgraph.electrical.capacitors.capacitor_1;strokeWidth=2;rotation=90;" vertex="1" parent="1">
          <mxGeometry x="1400" y="2360" width="100" height="30" as="geometry" />
        </mxCell>
        <mxCell id="wwYdYQFsJHzgmpC55MZX-30" style="edgeStyle=orthogonalEdgeStyle;rounded=0;orthogonalLoop=1;jettySize=auto;html=1;exitX=0;exitY=0.5;exitDx=0;exitDy=0;exitPerimeter=0;entryX=1;entryY=0.5;entryDx=0;entryDy=0;strokeWidth=2;endArrow=none;endFill=0;" edge="1" parent="1" source="wwYdYQFsJHzgmpC55MZX-31" target="wwYdYQFsJHzgmpC55MZX-46">
          <mxGeometry relative="1" as="geometry" />
        </mxCell>
        <mxCell id="wwYdYQFsJHzgmpC55MZX-31" value="" style="pointerEvents=1;verticalLabelPosition=bottom;shadow=0;dashed=0;align=center;html=1;verticalAlign=top;shape=mxgraph.electrical.resistors.resistor_2;rotation=0;strokeWidth=2;" vertex="1" parent="1">
          <mxGeometry x="1240" y="2285" width="100" height="20" as="geometry" />
        </mxCell>
        <mxCell id="wwYdYQFsJHzgmpC55MZX-32" style="edgeStyle=orthogonalEdgeStyle;rounded=0;orthogonalLoop=1;jettySize=auto;html=1;exitX=0;exitY=0.5;exitDx=0;exitDy=0;exitPerimeter=0;entryX=1;entryY=0.5;entryDx=0;entryDy=0;strokeWidth=2;endArrow=none;endFill=0;" edge="1" parent="1" source="wwYdYQFsJHzgmpC55MZX-33" target="wwYdYQFsJHzgmpC55MZX-48">
          <mxGeometry relative="1" as="geometry" />
        </mxCell>
        <mxCell id="wwYdYQFsJHzgmpC55MZX-33" value="" style="pointerEvents=1;verticalLabelPosition=bottom;shadow=0;dashed=0;align=center;html=1;verticalAlign=top;shape=mxgraph.electrical.resistors.resistor_2;rotation=-90;strokeWidth=2;" vertex="1" parent="1">
          <mxGeometry x="1320" y="2365" width="100" height="20" as="geometry" />
        </mxCell>
        <mxCell id="wwYdYQFsJHzgmpC55MZX-38" style="edgeStyle=orthogonalEdgeStyle;rounded=0;orthogonalLoop=1;jettySize=auto;html=1;exitX=0.5;exitY=1;exitDx=0;exitDy=0;exitPerimeter=0;entryX=0;entryY=0.5;entryDx=0;entryDy=0;strokeWidth=2;endArrow=none;endFill=0;" edge="1" parent="1" source="wwYdYQFsJHzgmpC55MZX-39" target="wwYdYQFsJHzgmpC55MZX-49">
          <mxGeometry relative="1" as="geometry" />
        </mxCell>
        <mxCell id="wwYdYQFsJHzgmpC55MZX-39" value="" style="pointerEvents=1;verticalLabelPosition=bottom;shadow=0;dashed=0;align=center;html=1;verticalAlign=top;shape=mxgraph.electrical.signal_sources.source;aspect=fixed;points=[[0.5,0,0],[1,0.5,0],[0.5,1,0],[0,0.5,0]];elSignalType=dc2;elSourceType=dependent;strokeWidth=2;" vertex="1" parent="1">
          <mxGeometry x="1580" y="2345" width="60" height="60" as="geometry" />
        </mxCell>
        <mxCell id="wwYdYQFsJHzgmpC55MZX-40" style="edgeStyle=orthogonalEdgeStyle;rounded=0;orthogonalLoop=1;jettySize=auto;html=1;exitX=1;exitY=0.5;exitDx=0;exitDy=0;exitPerimeter=0;entryX=1;entryY=0.5;entryDx=0;entryDy=0;entryPerimeter=0;strokeWidth=2;endArrow=none;endFill=0;" edge="1" parent="1" source="wwYdYQFsJHzgmpC55MZX-31" target="wwYdYQFsJHzgmpC55MZX-33">
          <mxGeometry relative="1" as="geometry" />
        </mxCell>
        <mxCell id="wwYdYQFsJHzgmpC55MZX-41" style="edgeStyle=orthogonalEdgeStyle;rounded=0;orthogonalLoop=1;jettySize=auto;html=1;exitX=1;exitY=0.5;exitDx=0;exitDy=0;exitPerimeter=0;entryX=0;entryY=0.5;entryDx=0;entryDy=0;entryPerimeter=0;strokeWidth=2;endArrow=none;endFill=0;" edge="1" parent="1" source="wwYdYQFsJHzgmpC55MZX-31" target="wwYdYQFsJHzgmpC55MZX-29">
          <mxGeometry relative="1" as="geometry" />
        </mxCell>
        <mxCell id="wwYdYQFsJHzgmpC55MZX-45" style="edgeStyle=orthogonalEdgeStyle;rounded=0;orthogonalLoop=1;jettySize=auto;html=1;exitX=0.5;exitY=0;exitDx=0;exitDy=0;exitPerimeter=0;entryX=0;entryY=0.5;entryDx=0;entryDy=0;strokeWidth=2;endArrow=none;endFill=0;" edge="1" parent="1" source="wwYdYQFsJHzgmpC55MZX-39" target="wwYdYQFsJHzgmpC55MZX-50">
          <mxGeometry relative="1" as="geometry">
            <mxPoint x="1580" y="2295" as="sourcePoint" />
            <mxPoint x="1690" y="2325" as="targetPoint" />
          </mxGeometry>
        </mxCell>
        <mxCell id="wwYdYQFsJHzgmpC55MZX-46" value="" style="ellipse;whiteSpace=wrap;html=1;aspect=fixed;strokeWidth=2;" vertex="1" parent="1">
          <mxGeometry x="1217" y="2291" width="8" height="8" as="geometry" />
        </mxCell>
        <mxCell id="wwYdYQFsJHzgmpC55MZX-48" value="" style="ellipse;whiteSpace=wrap;html=1;aspect=fixed;strokeWidth=2;" vertex="1" parent="1">
          <mxGeometry x="1217" y="2451" width="8" height="8" as="geometry" />
        </mxCell>
        <mxCell id="wwYdYQFsJHzgmpC55MZX-49" value="" style="ellipse;whiteSpace=wrap;html=1;aspect=fixed;strokeWidth=2;" vertex="1" parent="1">
          <mxGeometry x="1795" y="2451" width="8" height="8" as="geometry" />
        </mxCell>
        <mxCell id="wwYdYQFsJHzgmpC55MZX-50" value="" style="ellipse;whiteSpace=wrap;html=1;aspect=fixed;strokeWidth=2;" vertex="1" parent="1">
          <mxGeometry x="1795" y="2291" width="8" height="8" as="geometry" />
        </mxCell>
        <mxCell id="wwYdYQFsJHzgmpC55MZX-52" value="$$r_{bb}$$" style="text;html=1;align=center;verticalAlign=middle;whiteSpace=wrap;rounded=0;fontSize=16;" vertex="1" parent="1">
          <mxGeometry x="1260" y="2250" width="60" height="30" as="geometry" />
        </mxCell>
        <mxCell id="wwYdYQFsJHzgmpC55MZX-53" value="$$r_{b&#39;e}$$" style="text;html=1;align=center;verticalAlign=middle;whiteSpace=wrap;rounded=0;fontSize=16;" vertex="1" parent="1">
          <mxGeometry x="1300" y="2357" width="70" height="30" as="geometry" />
        </mxCell>
        <mxCell id="wwYdYQFsJHzgmpC55MZX-55" value="$$b$$" style="text;html=1;align=center;verticalAlign=middle;whiteSpace=wrap;rounded=0;fontSize=18;" vertex="1" parent="1">
          <mxGeometry x="1195" y="2261" width="30" height="30" as="geometry" />
        </mxCell>
        <mxCell id="wwYdYQFsJHzgmpC55MZX-56" value="$$c$$" style="text;html=1;align=center;verticalAlign=middle;whiteSpace=wrap;rounded=0;fontSize=18;" vertex="1" parent="1">
          <mxGeometry x="1795" y="2261" width="20" height="30" as="geometry" />
        </mxCell>
        <mxCell id="wwYdYQFsJHzgmpC55MZX-57" value="$$e$$" style="text;html=1;align=center;verticalAlign=middle;whiteSpace=wrap;rounded=0;fontSize=18;" vertex="1" parent="1">
          <mxGeometry x="1200" y="2421" width="20" height="30" as="geometry" />
        </mxCell>
        <mxCell id="wwYdYQFsJHzgmpC55MZX-58" value="$$e$$" style="text;html=1;align=center;verticalAlign=middle;whiteSpace=wrap;rounded=0;fontSize=18;" vertex="1" parent="1">
          <mxGeometry x="1795" y="2421" width="25" height="30" as="geometry" />
        </mxCell>
        <mxCell id="wwYdYQFsJHzgmpC55MZX-60" value="$$(r_{\pi})$$" style="text;html=1;align=center;verticalAlign=middle;whiteSpace=wrap;rounded=0;fontSize=16;" vertex="1" parent="1">
          <mxGeometry x="1300" y="2384" width="70" height="30" as="geometry" />
        </mxCell>
        <mxCell id="wwYdYQFsJHzgmpC55MZX-61" value="$$C_{\pi}&#39;$$" style="text;html=1;align=center;verticalAlign=middle;whiteSpace=wrap;rounded=0;fontSize=16;" vertex="1" parent="1">
          <mxGeometry x="1380" y="2360" width="70" height="30" as="geometry" />
        </mxCell>
        <mxCell id="wwYdYQFsJHzgmpC55MZX-65" value="+" style="text;html=1;align=center;verticalAlign=middle;whiteSpace=wrap;rounded=0;fontSize=18;" vertex="1" parent="1">
          <mxGeometry x="1480" y="2329" width="10" height="11" as="geometry" />
        </mxCell>
        <mxCell id="wwYdYQFsJHzgmpC55MZX-66" value="-" style="text;html=1;align=center;verticalAlign=middle;whiteSpace=wrap;rounded=0;fontSize=18;" vertex="1" parent="1">
          <mxGeometry x="1480" y="2405" width="10" height="11" as="geometry" />
        </mxCell>
        <mxCell id="wwYdYQFsJHzgmpC55MZX-67" value="$$v_{b&#39;e}$$" style="text;html=1;align=center;verticalAlign=middle;whiteSpace=wrap;rounded=0;fontSize=16;" vertex="1" parent="1">
          <mxGeometry x="1472" y="2357" width="26" height="30" as="geometry" />
        </mxCell>
        <mxCell id="wwYdYQFsJHzgmpC55MZX-68" value="$$g_mv_{b&#39;e}$$" style="text;html=1;align=center;verticalAlign=middle;whiteSpace=wrap;rounded=0;fontSize=16;" vertex="1" parent="1">
          <mxGeometry x="1560" y="2390" width="26" height="30" as="geometry" />
        </mxCell>
        <mxCell id="wwYdYQFsJHzgmpC55MZX-71" value="" style="rounded=0;whiteSpace=wrap;html=1;" vertex="1" parent="1">
          <mxGeometry x="1275" y="2540" width="165" height="220" as="geometry" />
        </mxCell>
        <mxCell id="wwYdYQFsJHzgmpC55MZX-72" value="" style="rounded=0;whiteSpace=wrap;html=1;" vertex="1" parent="1">
          <mxGeometry x="1440" y="2540" width="165" height="220" as="geometry" />
        </mxCell>
        <mxCell id="wwYdYQFsJHzgmpC55MZX-73" value="" style="rounded=0;whiteSpace=wrap;html=1;" vertex="1" parent="1">
          <mxGeometry x="1605" y="2540" width="165" height="220" as="geometry" />
        </mxCell>
      </root>
    </mxGraphModel>
  </diagram>
</mxfile>
